<svg width="746" height="716" viewBox="0 0 746 716" fill="none" xmlns="http://www.w3.org/2000/svg">
<path d="M251.934 714.867C248.374 714.478 242.655 713.59 239.226 712.896L232.991 711.632L227.698 709.841L222.406 708.049L215.399 704.628L208.392 701.208L201.399 696.6L194.406 691.992L186.145 683.688L177.884 675.384L174.746 670.937C167.825 661.128 162.817 651.312 159.748 641.535C158.945 638.977 157.95 636.082 157.536 635.101L156.785 633.319L150.346 632.68C134.258 631.083 120.317 626.998 105.656 619.586L98.9064 616.174L93.314 612.275C72.4803 597.753 58.7255 580.857 49.9488 559.006L47.5881 553.129L45.8912 545.492C44.9579 541.291 43.8287 534.936 43.3818 531.369L42.5694 524.884L42.5382 515.634L42.507 506.384L43.6045 498.934L44.702 491.485L46.9924 482.434L49.2829 473.384L51.9154 466.854C53.3633 463.263 55.3598 458.712 56.3521 456.741C58.662 452.155 58.821 452.682 54.0314 449.057C40.4418 438.773 29.2127 427.009 20.7753 414.219L16.9256 408.384L13.9788 402.384C10.2314 394.753 8.18183 389.449 5.63631 380.792L3.60471 373.884L2.38583 366.884L1.16695 359.884L0.583466 350.384L0 340.884L0.612106 332.884L1.22423 324.884L2.41878 317.884L3.61333 310.884L5.58925 304.384C13.9894 276.75 28.8943 254.727 51.0816 237.166L55.7567 233.465L61.0816 230.329C64.0102 228.605 66.9646 226.756 67.6468 226.221L68.8871 225.248L67.7959 221.066C66.5542 216.307 65.9486 211.668 65.1401 200.722L64.5741 193.06L65.1531 185.722L65.7322 178.384L67.1512 171.134L68.5703 163.884L70.6643 157.634L72.7583 151.384L75.4112 145.884C80.8533 134.601 87.0678 125.542 96.7143 114.829L101.906 109.063L106.656 105.192C121.763 92.8801 135.574 86.1398 155.486 81.3614L162.565 79.6625L167.986 79.1485C170.967 78.8658 175.042 78.6343 177.042 78.6341L180.678 78.6337L181.099 77.5087C181.33 76.8899 182.027 74.2594 182.648 71.6631L183.776 66.9425L185.5 62.9131C189.059 54.5964 195.215 44.0697 200.429 37.3837L203.549 33.3837L208.491 28.6337C217.146 20.315 225.004 14.7201 234.548 10.0826L238.689 8.07011L246.298 5.60001C255.076 2.75015 258.345 2.02332 267.656 0.850296L274.406 0L280.906 0.291611L287.406 0.583237L294.656 1.81596L301.906 3.04871L307.156 4.79494C320.371 9.19042 327.053 13.0375 339.325 23.3172L345.243 28.2748L349.012 32.5792L352.781 36.8837L356.761 42.8837L360.741 48.8837L362.758 53.1337C368.78 65.819 370.43 70.7906 372.219 81.6337L373.25 87.8837L373.514 98.3837L373.778 108.884L374.342 109.256L374.906 109.629L419.824 109.506L464.741 109.384L465.074 108.884L465.406 108.384L465.156 91.408L464.906 74.4323L461.767 72.658C460.04 71.6821 457.305 69.826 455.69 68.5333L452.753 66.1829L450.536 63.2833C447.397 59.1768 445.924 56.4677 444.336 51.8837L442.951 47.8837L442.943 41.6337L442.935 35.3837L443.841 32.3837C444.34 30.7337 445.789 27.3635 447.062 24.8944L449.375 20.4051L453.641 16.132L457.906 11.859L460.91 10.2817L463.913 8.70447L467.66 7.65654L471.406 6.60861L475.906 6.30565L480.406 6.00267L484.906 7.12889L489.406 8.25513L493.161 10.1396L496.916 12.0241L500.572 15.4088L504.228 18.7935L506.029 21.5886C507.02 23.1259 508.565 26.111 509.461 28.2222L511.092 32.0607L511.624 34.939L512.156 37.8173L512.148 42.3505L512.141 46.8837L511.423 49.928L510.705 52.9724L508.684 57.2065L506.662 61.4407L503.651 65.0172L500.641 68.5937L497.523 70.8021C495.809 72.0168 493.901 73.1655 493.284 73.3549C492.667 73.5442 491.823 74.038 491.409 74.4521L490.656 75.2051L490.634 99.0444L490.612 122.884L489.956 124.721C489.595 125.731 488.583 127.463 487.707 128.569L486.114 130.581L483.26 131.982L480.406 133.384L427.156 133.634L373.906 133.884L373.762 152.384C373.683 162.559 373.754 171.638 373.92 172.561L374.221 174.238L375.814 173.968C376.69 173.819 381.569 173.237 386.656 172.673C391.744 172.11 399.245 171.276 403.327 170.821L410.747 169.993L422.077 170.281L433.406 170.569L443.656 171.619C463.081 173.609 477.123 176.005 496.848 180.694L505.29 182.7L505.695 182.292C506.897 181.081 518.962 165.916 523.523 159.884C528.93 152.731 531.533 149.494 538.598 141.134C540.805 138.521 544.319 134.306 546.406 131.767L550.201 127.15L552.304 125.929C555.321 124.177 556.355 124.075 572.934 123.905C581.169 123.82 589.157 123.724 590.685 123.692L593.463 123.634L595.185 120.028L596.906 116.422L600.91 112.403L604.914 108.384L607.78 106.701C609.356 105.776 612.616 104.316 615.026 103.457L619.406 101.896L626.406 101.89L633.406 101.884L636.906 103.042L640.406 104.201L643.821 106.213L647.235 108.225L650.871 111.896L654.507 115.568L656.847 120.226L659.187 124.884L659.913 128.384L660.639 131.884L660.648 136.248L660.656 140.613L659.839 144.748L659.022 148.884L657.557 151.884C656.751 153.534 654.819 156.549 653.262 158.585L650.433 162.287L647.997 164.212C644.565 166.925 639.942 169.417 636.152 170.596L632.912 171.605L628.159 171.906L623.406 172.208L619.156 171.444L614.906 170.68L610.906 168.653L606.906 166.627L604.561 164.617C603.271 163.511 600.908 160.981 599.311 158.994L596.406 155.381L594.906 152.003L593.406 148.625L592.406 148.37C591.856 148.229 585.225 148.287 577.671 148.499L563.937 148.884L559.258 154.884C556.684 158.184 552.402 163.675 549.742 167.086C547.082 170.498 543.76 174.66 542.359 176.336C540.959 178.012 537.967 181.837 535.712 184.836L531.61 190.288L532.008 190.65C532.227 190.85 533.306 191.294 534.406 191.638C535.506 191.981 542.252 194.605 549.397 197.469L562.389 202.675L568.397 205.832C584.933 214.521 599.469 222.716 608.214 228.279C610.033 229.437 613.133 231.396 615.102 232.634C617.071 233.871 622.108 237.231 626.294 240.099C630.481 242.967 635.945 246.705 638.438 248.404C640.931 250.104 645.109 253.157 647.724 255.189C650.338 257.221 653.784 259.896 655.382 261.134C676.914 277.812 708.879 308.081 721.319 323.573C722.192 324.66 725.831 328.978 729.406 333.169C732.981 337.36 737.532 342.704 739.519 345.045L743.132 349.303L743.89 351.593C744.307 352.853 744.889 355.19 745.183 356.787L745.717 359.691L744.896 362.163L744.075 364.634L739.644 370.759C724.125 392.208 698.125 420.287 676.526 438.927C656.714 456.024 655.272 457.182 639.22 468.884C604.608 494.116 564.696 515.657 529.029 528.356C526.896 529.116 525.044 529.911 524.912 530.124C524.646 530.554 524.69 530.618 532.383 540.996C542.617 554.799 543.561 556.124 547.234 561.846L550.906 567.566L551.953 568.143L553 568.719L556.203 568.801C557.965 568.845 566.781 568.826 575.794 568.758L592.182 568.634L593.954 564.951L595.726 561.269L598.422 558.062L601.117 554.855L604.303 552.515C607.952 549.836 611.417 548.007 615.535 546.586L618.406 545.596L622.906 545.309L627.406 545.022L631.406 545.572L635.406 546.122L640.406 548.591L645.406 551.06L649.318 554.673L653.23 558.285L656.181 564.355L659.132 570.424L659.745 575.279L660.358 580.134L659.782 585.293L659.205 590.452L658.036 593.668L656.867 596.884L654.669 600.134C653.459 601.921 651.106 604.75 649.438 606.419L646.406 609.455L642.809 611.585L639.212 613.714L635.809 614.889L632.406 616.063L628.838 616.549L625.269 617.036L621.495 616.613C608.717 615.18 598.927 608.074 592.692 595.709L591.092 592.535L566.749 592.685L542.406 592.836L540.644 592.057L538.882 591.279L535.124 587.081C531.296 582.806 527.281 577.434 522.61 570.34C519.332 565.36 513.665 557.511 508.162 550.327C505.821 547.271 502.723 543.053 501.276 540.952L498.647 537.134L497.276 537.138C496.523 537.138 492.081 537.913 487.406 538.855C471.402 542.081 458.87 543.776 444.8 544.619L436.195 545.134H423.729H411.263L411.085 545.759C410.987 546.102 410.906 554.821 410.906 565.134V583.884L446.156 584.134L481.406 584.384L483.764 585.77L486.122 587.156L487.374 588.797C488.062 589.699 489.026 591.325 489.516 592.411L490.406 594.384L490.656 618.593L490.906 642.803L495.156 645.307L499.406 647.812L503.197 651.68L506.988 655.548L508.793 658.984L510.599 662.421L511.884 666.855L513.169 671.29L513.2 675.587L513.231 679.884L512.402 683.634L511.573 687.384L509.53 691.514L507.487 695.644L504.826 698.871L502.164 702.098L498.535 704.546C496.54 705.893 493.557 707.672 491.907 708.501L488.907 710.008L485.157 710.883L481.407 711.759L477.407 711.725L473.407 711.691L469.907 710.613C467.982 710.02 464.911 708.754 463.083 707.799L459.759 706.063L456.228 703.091L452.697 700.119L450.434 696.948C449.19 695.204 447.488 692.317 446.653 690.533L445.135 687.289L444.347 683.586L443.558 679.883L443.818 674.633L444.078 669.383L444.919 666.652C445.381 665.149 446.433 662.492 447.258 660.747L448.757 657.575L451.221 654.479C452.577 652.776 454.974 650.301 456.547 648.979L459.407 646.575L462.777 644.979L466.147 643.383L466.027 625.883L465.907 608.383L430.624 608.315L395.341 608.247L393.302 607.208L391.264 606.168L389.449 604.047L387.634 601.927L386.895 599.439L386.157 596.952V570.565V544.179L384.282 543.893C383.25 543.737 380.624 543.287 378.445 542.895C376.267 542.502 374.298 542.296 374.07 542.437L373.656 542.693V578.638V614.582L372.893 620.483L372.129 626.384L370.103 633.884L368.076 641.384L365.812 646.634C349.242 685.042 319.909 708.218 280.006 714.431L275.406 715.147L266.906 715.361L258.406 715.575L251.934 714.867ZM271.386 692.112C278.266 691.324 282.834 690.25 289.656 687.814L295.906 685.583L303.017 682.111L310.128 678.64L316.276 673.699L322.425 668.759L325.195 665.571C335.216 654.043 340.696 645.224 344.334 634.772L346.087 629.736L347.747 622.31L349.406 614.884V517.884V420.884H345.406H341.406L341.28 516.801L341.154 612.718L340.439 617.051C338.135 631.022 332.515 644.197 324.598 654.182L321.191 658.48L317.048 662.233C314.77 664.298 310.428 667.763 307.399 669.935L301.892 673.884L295.649 676.971L289.406 680.058L284.943 681.341C282.488 682.047 277.988 682.991 274.943 683.439L269.406 684.252L261.156 684.001L252.906 683.75L247.523 682.672L242.139 681.594L237.73 679.912C219.171 672.829 205.438 661.601 196.704 646.369L194.146 641.908L191.665 635.608L189.184 629.308L187.717 623.596C186.126 617.396 185.392 612.828 184.886 605.975L184.561 601.566L183.855 601.295C183.467 601.146 182.37 601.17 181.419 601.348L179.689 601.673L178.922 602.439L178.156 603.205V606.939C178.156 612.358 179.029 619.559 180.483 626.134L181.755 631.884L183.754 637.384C191.209 657.892 205.795 673.609 227.553 684.58C238.403 690.051 258.794 693.555 271.386 692.112ZM482.314 686.409C484.906 685.485 486.086 684.335 487.472 681.384L488.647 678.884V676.384V673.884L487.472 671.384C486.151 668.571 485.087 667.463 482.905 666.632L481.406 666.06L478.315 666.041L475.223 666.022L473.085 667.203L470.947 668.384L469.502 670.724L468.056 673.063V676.087V679.112L469.158 681.387L470.259 683.661L471.833 684.834C473.872 686.353 475.92 687.051 478.406 687.073L480.406 687.09L482.314 686.409ZM154.656 606.425C154.656 605.21 154.52 603.86 154.353 603.425L154.049 602.634H152.941C152.332 602.634 148.997 602.069 145.531 601.38L139.229 600.125L134.16 598.361C131.371 597.39 126.574 595.405 123.498 593.949L117.906 591.301L113.656 588.398C111.319 586.802 107.761 584.259 105.75 582.747L102.094 579.998L96.5004 573.784C84.0964 560.003 76.8539 544.556 74.6276 527.134L74.0207 522.384L73.9918 515.884L73.963 509.384L74.5971 505.384C75.7587 498.057 76.7036 493.94 78.728 487.384L80.7351 480.884L83.9694 474.249L87.2037 467.615L86.875 467.083C86.4611 466.413 82.3538 464.632 81.2399 464.639L80.4064 464.644L78.2241 468.473L76.0418 472.302L74.0665 477.593L72.0911 482.884L70.1626 490.884C69.1019 495.284 67.8486 501.004 67.3774 503.595L66.5207 508.307L66.7988 517.595L67.0768 526.884L68.3217 533.134C71.6485 549.836 76.0727 560.034 85.3499 572.384C100.023 591.917 129.986 607.945 153.031 608.589L154.656 608.634V606.425ZM627.834 591.093L629.761 590.558L631.951 588.539L634.14 586.521L634.646 584.702C634.923 583.702 635.152 581.691 635.154 580.234L635.159 577.584L634.451 576.234C632.632 572.765 629.172 570.634 625.358 570.634H623.124L621.272 571.408C618.801 572.44 617.219 573.963 616.101 576.384L615.178 578.384L615.167 581.025L615.156 583.666L615.925 585.506C617.202 588.563 619.344 590.299 622.906 591.166C625.086 591.697 625.692 591.688 627.834 591.093ZM433.406 520.902C450.704 518.487 465.01 513.823 481.418 505.252L489.93 500.805L495.418 497.151C506.759 489.599 512.92 484.485 524.565 472.959L532.723 464.884L536.815 459.724C539.065 456.887 543.132 451.374 545.852 447.474L550.798 440.384L555.425 430.884L560.051 421.384L562.142 415.384C566.957 401.565 567.578 399.587 568.595 394.849C569.182 392.118 570.231 385.946 570.927 381.134L572.193 372.384L572.501 361.589L572.81 350.794L572.2 344.339C571.298 334.798 570.749 331.206 568.881 322.634L567.192 314.884L564.476 306.634C560.955 295.942 559.27 291.769 555.391 284.142L552.209 277.884L547.009 269.792C544.148 265.341 540.143 259.501 538.107 256.813L534.406 251.925L526.914 244.221L519.421 236.517L513.914 231.911C505.412 224.803 501.656 222.207 491.632 216.517C478.121 208.848 471.591 205.779 461.406 202.312L456.406 200.609L449.156 199.139C439.662 197.213 433.505 196.323 424.656 195.599L417.406 195.005L410.156 195.332C402.746 195.667 401.854 195.769 390.156 197.619C386.444 198.206 381.459 198.985 379.079 199.351C376.699 199.716 374.506 200.168 374.204 200.354L373.656 200.693V235.413V270.134H374.165C374.445 270.134 376.956 268.989 379.746 267.589L384.816 265.044L390.367 263.623C393.42 262.841 398.616 261.814 401.912 261.34L407.906 260.479L415.156 260.515L422.406 260.55L428.511 261.344L434.615 262.139L440.482 263.917L446.35 265.696L452.711 268.93C456.209 270.709 460.216 273.001 461.615 274.024L464.159 275.884L464.027 276.634L463.894 277.384L460.65 277.717C458.866 277.9 456.325 278.297 455.004 278.6L452.601 279.15L448.552 281.186L444.503 283.222L441.772 285.803L439.04 288.384L436.105 292.836L433.171 297.288L432.13 300.069C431.558 301.598 430.739 304.545 430.31 306.617L429.53 310.384L429.851 314.568L430.171 318.752L431.447 322.568C433.878 329.841 437.739 335.451 443.102 339.503L445.906 341.622L450.656 343.722L455.406 345.821L461.296 346.039L467.186 346.258L470.296 345.661L473.406 345.063L477.633 343.035L481.86 341.006L485.633 337.173L489.406 333.339L491.817 328.733C494.897 322.848 495.189 321.874 495.581 316.139L495.906 311.394L496.752 311.233L497.598 311.072L499.583 315.228C504.395 325.299 506.566 333.166 507.948 345.547L508.767 352.884L508.494 360.634L508.221 368.384L507.424 374.384L506.627 380.384L505.388 384.965C502.065 397.252 497.079 407.101 488.342 418.634L484.744 423.384L480.575 427.434C467.202 440.427 451.911 449.2 435.265 453.43L430.623 454.609L424.317 455.122C406.482 456.57 390.978 454.299 376.99 448.189C375.661 447.609 374.367 447.134 374.115 447.134H373.656V481.572V516.011L374.281 516.487C375.573 517.471 388.246 519.862 400.156 521.369L405.906 522.096L416.906 521.883L427.906 521.67L433.406 520.902ZM541.906 497.059L549.406 494.067L563.406 487.135L577.406 480.202L587.156 474.605C592.519 471.527 599.944 466.98 603.656 464.501C607.369 462.022 613.429 457.974 617.124 455.504C620.818 453.034 625.093 450.036 626.624 448.842C628.154 447.647 631.431 445.152 633.906 443.297C660.835 423.117 698.705 385.746 714.416 363.848L717.156 360.029V358.929V357.829L715.594 355.366C713.562 352.162 709.514 347.207 701.036 337.547L694.158 329.711L680.782 316.236L667.406 302.76L657.156 294.071C638.882 278.578 634.56 275.175 621.505 266.004C602.132 252.393 588.199 243.984 567.656 233.501C562.844 231.045 558.681 228.859 558.406 228.642C557.624 228.026 541.294 221.134 540.616 221.134H540.011L542.459 223.801C566.129 249.593 581.291 275.994 589.596 305.884C592.737 317.186 594.765 327.634 595.952 338.634L596.789 346.384V358.942V371.5L596.204 376.692C593.731 398.634 587.851 420.099 579.342 438.242C576.104 445.146 573.642 449.322 565.479 461.76L559.819 470.384L555.125 476.134L550.431 481.884L540.502 491.783L530.573 501.683L532.491 500.867C533.546 500.418 537.784 498.705 541.909 497.059H541.906ZM137.406 450.14L143.406 449.67L148.325 448.654C151.031 448.095 153.448 447.512 153.697 447.359L154.149 447.079L153.201 445.231C152.68 444.215 151.667 442.836 150.95 442.167L149.647 440.951L142.858 441.863L136.069 442.775L129.737 442.433C126.255 442.245 121.273 441.857 118.664 441.572L113.923 441.053L106.185 438.812C94.0422 435.295 84.7108 431.015 74.6564 424.351L69.9064 421.203L64.4439 416.244C55.556 408.175 47.591 397.69 42.4814 387.334L40.2857 382.884L38.2655 376.634C36.0925 369.911 35.132 366.175 33.9598 359.884C32.7054 353.152 32.6224 352.164 32.5725 343.384L32.5243 334.884L33.344 328.884C34.4263 320.961 35.6999 315.756 38.482 307.884L40.7792 301.384L43.2648 296.424C52.533 277.931 66.5791 263.13 84.4959 252.979L88.5854 250.662L93.9959 248.691C104.925 244.71 108.506 243.568 113.038 242.621L117.67 241.654L124.538 241.094L131.406 240.534L137.956 240.87L144.506 241.206L145.85 239.61C146.588 238.732 147.521 237.379 147.923 236.602L148.653 235.19L148.235 234.932C147.233 234.313 142.643 233.58 136.796 233.105L130.488 232.593L124.795 233.123L119.101 233.653L112.049 235.156L104.998 236.66L97.2457 239.202L89.494 241.744L85.8502 243.663C80.9165 246.262 73.4929 251.122 66.6103 256.259L60.9064 260.517L56.3389 265.2L51.7714 269.884L48.0662 274.884C46.0283 277.634 42.9417 282.095 41.207 284.799L38.0531 289.714L35.1152 295.93C33.4993 299.349 31.1861 304.899 29.9747 308.265L27.7722 314.384L26.4989 320.884L25.2256 327.384L24.6448 333.884L24.0641 340.384L24.6097 348.634C25.6666 364.613 28.976 377.216 36.0719 392.284L38.615 397.684L41.803 402.55C46.6028 409.876 50.8395 414.617 60.6904 423.685L65.9064 428.487L70.9064 431.896L75.9064 435.305L80.9064 437.663C99.7184 446.538 110.74 449.408 130.406 450.553C130.956 450.585 134.106 450.399 137.406 450.14ZM348.817 397.009L349.669 396.384L349.538 373.634L349.406 350.884L346.427 350.731C344.789 350.646 342.932 350.707 342.302 350.865L341.156 351.153V374.102V397.05L341.781 397.302C342.125 397.441 343.657 397.572 345.186 397.594L347.965 397.634L348.817 397.009ZM349.546 212.384L349.686 96.8837L348.952 92.6337C348.549 90.2962 347.97 86.4059 347.666 83.9886L347.114 79.5935L345.611 74.9886C344.785 72.4559 343.024 68.1337 341.698 65.3837L339.287 60.3837L336.295 56.0031L333.304 51.6225L328.962 46.9018L324.621 42.1812L320.633 39.1765C314.876 34.8382 310.525 32.3832 303.759 29.6549L297.791 27.2487L293.295 26.193C290.822 25.6124 286.46 24.8902 283.602 24.5881L278.406 24.0389L272.906 24.3653L267.406 24.6916L262.906 25.6657C256.897 26.9663 252.994 28.2844 246.406 31.2368L240.906 33.7019L235.906 37.0241L230.906 40.3463L225.274 46.1002L219.641 51.854L216.364 56.5744C212.193 62.5822 209.778 67.4344 207.43 74.5256L205.562 80.1676L205.814 80.8226L206.065 81.4776L209.182 82.139L212.298 82.8003L212.961 81.8939C213.325 81.3954 214.104 79.5016 214.692 77.6856C215.279 75.8695 217.189 71.4587 218.936 67.8837L222.112 61.3837L225.714 56.9558L229.315 52.528L233.111 49.2618C242.709 41.0026 253.955 35.4641 265.406 33.3561L269.906 32.5278L275.555 32.276L281.204 32.0242L286.055 32.871C299.495 35.217 312.735 41.9059 322.507 51.2876L326.644 55.2597L329.597 60.0717C335.946 70.4158 339.303 79.6222 340.652 90.3837L341.216 94.8837L341.311 210.884L341.406 326.884L341.824 327.53L342.241 328.176L345.824 328.03L349.406 327.884L349.546 212.384ZM94.8342 214.345C96.5239 213.911 98.0866 213.382 98.3069 213.169L98.7074 212.783L97.892 207.833L97.0767 202.884L96.7973 196.839L96.5178 190.794L97.1124 186.589C97.4394 184.276 98.1453 180.011 98.6812 177.112L99.6555 171.84L102.172 165.442C110.671 143.838 123.607 129.451 143.297 119.706L149.406 116.682L155.906 114.476L162.406 112.27L170.156 111.139L177.906 110.008L183.656 110.308C188.68 110.57 192.24 111.003 200.989 112.412L203.071 112.748L204.609 110.066C205.455 108.591 206.149 107.134 206.152 106.828L206.156 106.273L202.281 105.209C196.807 103.708 193.443 103.249 185.104 102.869L177.802 102.537L172.104 103.122L166.406 103.707L160.025 105.163L153.644 106.62L146.525 109.687C136.03 114.209 132.967 115.847 127.156 120.048L121.906 123.843L116.402 129.363L110.897 134.884L107.129 140.134C100.944 148.752 98.7283 152.844 94.8096 162.884C91.8778 170.395 90.7873 175.066 89.3812 186.134L88.5236 192.884L88.7929 199.884L89.0621 206.884L89.9044 210.384C90.9953 214.916 91.0657 215.134 91.4435 215.134C91.6187 215.134 93.1445 214.779 94.8342 214.345Z" fill="#B9CCD9"/>
<path d="M252.406 713.871C231.709 711.809 217.475 706.514 198.906 693.971L194.406 690.931L187.011 683.499L179.615 676.067L176.181 671.417C174.293 668.86 171.59 664.922 170.176 662.665L167.605 658.562L164.394 651.18L161.183 643.798L160.49 640.841C160.11 639.214 159.287 636.699 158.663 635.252L157.528 632.62L156.467 632.418C155.884 632.306 152.481 631.949 148.906 631.625C134.536 630.322 120.262 626.024 105.406 618.528L99.4064 615.5L94.4064 612.103C73.8229 598.119 59.4291 580.423 50.5092 558.134L48.2081 552.384L46.4726 544.384C45.5181 539.984 44.4637 534.246 44.1293 531.634L43.5215 526.884L43.4639 516.384L43.4064 505.884L44.0611 501.134C46.1628 485.885 50.8039 470.085 56.709 458.076C59.9824 451.418 60.1735 452.045 53.4636 447.437C46.0021 442.312 39.142 435.878 31.2842 426.634L25.5466 419.884L21.4107 413.634C14.6172 403.368 10.7903 395 6.74474 381.566L4.28062 373.384L3.21931 367.134C1.84545 359.043 1.17416 350.69 1.16429 341.562L1.15637 334.24L1.67239 329.062C1.9562 326.214 2.7324 320.734 3.39726 316.884L4.60609 309.884L6.18623 304.884C13.1838 282.741 23.3599 265.195 37.9042 250.193L43.9064 244.001L50.2136 238.943L56.5208 233.884L62.2805 230.487C65.4484 228.619 68.4386 226.65 68.9255 226.113L69.8107 225.134L68.7541 221.498L67.6974 217.861L66.9175 211.622L66.1376 205.384L65.8377 196.884L65.5377 188.384L66.3639 181.387C68.9755 159.271 75.606 143.158 89.9342 124.107L93.8628 118.884L100.635 112.106L107.406 105.329L111.156 102.555C114.624 99.9902 120.67 96.1474 126.184 93.0038C132.361 89.4824 148.422 83.4941 155.156 82.2017C156.669 81.9115 159.481 81.3336 161.406 80.9176L164.906 80.1612L172.906 79.8301L180.906 79.499L181.492 79.0376L182.078 78.5761L182.41 76.4799C184.116 65.6859 191.146 51.1663 200.976 38.1337L204.559 33.3837L208.483 29.6031C221.023 17.5197 231.738 11.1694 248.522 5.87267L257.138 3.15378L264.522 2.08311L271.906 1.01245L280.156 1.27815L288.406 1.54387L294.406 2.61496L300.406 3.68607L306.844 5.7011C319.856 9.77396 330.141 15.9907 342.368 27.1745C353.496 37.3523 362.946 52.4953 368.484 69.0212L370.206 74.1588L371.231 80.7712L372.256 87.3837L372.581 98.4678L372.906 109.552L373.237 109.882L373.568 110.212L419.632 110.236C444.967 110.25 465.822 110.135 465.975 109.981C466.129 109.828 466.222 101.878 466.182 92.3157L466.109 74.9293L465.639 74.3625C465.38 74.0507 463.309 72.6554 461.037 71.2618L456.906 68.728L454.656 66.5515C453.419 65.3545 451.369 62.9902 450.101 61.2977L447.796 58.2203L445.958 53.6284L444.12 49.0365L443.729 44.9937L443.339 40.951L443.93 36.6476L444.522 32.3441L446.266 28.3206C448.83 22.4029 450.969 19.5505 456.659 14.4628L459.366 12.042L462.168 10.6278C463.709 9.85002 466.305 8.85179 467.938 8.4095L470.906 7.60533L476.156 7.30295L481.406 7.00056L485.378 8.0921L489.35 9.18362L493.3 11.2386L497.25 13.2935L501.113 17.121L504.977 20.9485L507.304 25.7L509.63 30.4516L510.464 33.6676L511.297 36.8836L511.332 41.8836L511.366 46.8836L510.691 49.6336C510.32 51.1461 509.012 54.4998 507.786 57.0863L505.555 61.789L501.231 66.151L496.906 70.513L493.818 72.0621C492.119 72.9142 490.571 73.8679 490.377 74.1816L490.024 74.7519L489.909 99.0855L489.793 123.419L488.965 125.02C488.51 125.9 487.432 127.424 486.569 128.406L485.001 130.193L482.954 131.288L480.906 132.384L427.464 132.504L374.021 132.624L373.264 133.252L372.507 133.88L372.784 154.059L373.06 174.237L373.56 174.737L374.06 175.237L376.483 174.727C377.816 174.447 383.744 173.747 389.656 173.172C395.569 172.598 402.206 171.866 404.406 171.545L408.406 170.962L417.656 170.939L426.906 170.916L436.406 171.8C446.678 172.755 458.045 174.119 468.512 175.652L475.118 176.62L490.197 180.118L505.275 183.617L505.905 183.25C506.251 183.049 507.893 181.084 509.554 178.884C511.215 176.684 513.825 173.421 515.354 171.634C516.883 169.846 520.775 164.896 524.002 160.634C532.323 149.644 539 141.548 549.656 129.522L551.906 126.983L554.086 126.011L556.267 125.038L575.262 124.758L594.258 124.479L595.221 122.181C597.034 117.851 597.911 116.504 600.906 113.446C606.088 108.157 612.488 104.59 619.459 103.108L622.406 102.481L626.906 102.481L631.406 102.481L634.656 103.312L637.906 104.144L641.656 105.974L645.406 107.805L649.919 112.344L654.432 116.884L656.29 120.634C657.312 122.696 658.494 125.734 658.918 127.384L659.688 130.384L659.678 136.634L659.668 142.884L658.643 146.569C657.082 152.188 654.377 156.639 649.537 161.555L646.906 164.226L643.509 166.25C641.641 167.363 638.621 168.815 636.799 169.477L633.484 170.679L627.945 170.958L622.406 171.236L617.784 170.208L613.162 169.179L610.784 167.801C603.451 163.552 596.722 155.921 594.692 149.553L594.108 147.722L593.335 147.425L592.561 147.129L578.108 147.461L563.654 147.794L560.03 152.521C553.019 161.665 543.892 173.317 540.036 178.047C538.458 179.983 535.697 183.538 533.902 185.946L530.637 190.325L530.806 190.833L530.976 191.341L535.679 192.969C538.266 193.865 541.963 195.27 543.895 196.092C545.826 196.914 550.331 198.738 553.906 200.144L560.406 202.702L568.156 206.74C572.419 208.961 578.428 212.083 581.51 213.677C584.592 215.271 588.304 217.333 589.76 218.259C591.215 219.185 594.206 220.92 596.406 222.114C598.606 223.308 601.869 225.22 603.656 226.362C624.454 239.648 626.269 240.841 632.156 245.096C635.044 247.182 638.081 249.315 638.906 249.834C644.879 253.596 664.69 269.356 676.906 280.065C689.212 290.851 712.366 314.307 723.197 326.957C728.595 333.262 739.687 346.584 741.316 348.72L742.694 350.528L743.761 354.849L744.828 359.169L743.99 361.828L743.152 364.487L740.655 367.935C739.282 369.832 737.055 372.959 735.706 374.884C728.072 385.781 716.594 398.662 697.156 418.148L682.906 432.434L675.685 438.659C659.519 452.595 657.125 454.568 648.448 461.114C614.995 486.349 581.835 505.735 547.156 520.333C537.036 524.593 535.548 525.191 532.656 526.156C531.144 526.66 528.669 527.518 527.156 528.062L524.406 529.05L524.256 530.264L524.105 531.478L525.946 533.681C526.959 534.892 528.697 537.234 529.809 538.884C530.921 540.534 532.558 542.784 533.446 543.884C537.494 548.896 547.49 563.367 549.145 566.612L550.076 568.437L551.39 569.035L552.703 569.634H572.352H592.001L592.78 568.759C593.208 568.277 594.248 566.421 595.091 564.634L596.624 561.384L599.668 558.022L602.712 554.66L607.185 551.669L611.657 548.677L615.683 547.405L619.708 546.134L625.307 546.141L630.906 546.149L634.156 546.914L637.406 547.68L640.156 549.218C641.669 550.064 644.445 551.89 646.326 553.275L649.745 555.794L651.661 558.339C652.715 559.739 654.603 562.948 655.857 565.472L658.136 570.06L658.71 573.722L659.285 577.384L658.997 583.134L658.71 588.884L657.67 592.237L656.63 595.59L654.163 599.237C648.8 607.168 642.649 611.844 633.906 614.639L630.406 615.758L624.656 615.732L618.906 615.707L615.406 614.614C605.685 611.578 596.641 603.57 593.362 595.095C592.891 593.879 592.303 592.659 592.056 592.384L591.606 591.884L568.001 592.06L544.396 592.237L542.181 591.641L539.967 591.044L538.437 589.456C533.689 584.526 529.601 579.189 522.202 568.255C519.459 564.201 514.719 557.621 511.668 553.634C508.617 549.646 504.778 544.448 503.135 542.083C501.492 539.717 499.708 537.383 499.169 536.895L498.19 536.01L493.298 536.876C490.608 537.352 484.509 538.505 479.746 539.437C471.821 540.988 465.747 541.865 454.156 543.133C451.819 543.389 444.169 543.859 437.156 544.178L424.406 544.758L417.83 544.511L411.254 544.264L410.78 544.574L410.307 544.884L409.983 564.134L409.66 583.384L410.116 584.095L410.573 584.807L445.336 584.912L480.099 585.017L482.356 586.109L484.612 587.202L486.2 589.01C487.073 590.005 488.203 591.733 488.711 592.851L489.634 594.884L489.645 618.468C489.651 631.439 489.793 642.408 489.96 642.844L490.264 643.636L493.835 645.484L497.406 647.332L501.968 651.858L506.529 656.384L508.395 660.099L510.26 663.814L511.458 668.538L512.656 673.262L512.65 676.073L512.644 678.884L511.459 683.646L510.273 688.408L507.937 692.646L505.601 696.884L503.004 699.555C500.057 702.584 496.158 705.386 491.821 707.59L488.857 709.096L484.487 710.115L480.118 711.134H477.717H475.316L471.405 710.134L467.494 709.133L463.848 707.167C461.843 706.085 458.746 704.033 456.967 702.607L453.731 700.014L450.994 696.199L448.258 692.384L447.011 689.384C446.326 687.734 445.477 685.034 445.124 683.384L444.483 680.384L444.523 675.829L444.562 671.274L445.379 668.079L446.196 664.884L448.229 660.679L450.262 656.474L454.584 652.134L458.906 647.795L462.906 645.799L466.906 643.804L467.037 626.153L467.169 608.502L466.615 607.835L466.061 607.167L431.888 607.474L397.714 607.78L395.426 607.139L393.139 606.499L391.07 604.441L389.002 602.384L388.067 600.283L387.131 598.183L387.147 571.509L387.163 544.835L386.534 544.075L385.906 543.315L380.656 542.41C377.768 541.913 374.956 541.478 374.406 541.445L373.406 541.384L373.064 544.634L372.723 547.884L372.71 578.634L372.697 609.384L372.184 616.4C370.965 633.074 366.186 646.907 355.356 665.113C345.629 681.466 319.637 703.178 305.905 706.421C305.08 706.616 303.618 707.164 302.655 707.638C291.967 712.905 270.023 715.626 252.405 713.871L252.406 713.871ZM277.806 692.067L283.205 691.087L288.556 689.169C291.498 688.114 297.281 685.697 301.406 683.797L308.906 680.344L311.906 678.222C313.556 677.055 315.912 675.377 317.141 674.492C324.588 669.132 336.067 654.578 342.073 642.884L344.641 637.884L345.882 633.634C346.565 631.296 347.846 625.896 348.728 621.634L350.333 613.884L350.278 517.265L350.223 420.646L349.869 420.074L349.515 419.501L341.711 419.846C337.418 420.036 326.031 420.235 316.406 420.288L298.906 420.384L296.584 421.749C293.79 423.391 291.855 425.596 290.542 428.63L289.567 430.884L289.34 446.634L289.113 462.384L289.51 480.128L289.906 497.872L293.505 499.689L297.103 501.505L300.387 504.119L303.672 506.732L304.937 508.89C305.632 510.078 306.547 511.335 306.968 511.685C308.199 512.706 310.058 516.768 311.224 520.979L312.304 524.884L312.271 530.499L312.238 536.114L310.9 540.249C310.165 542.523 308.965 545.621 308.235 547.134L306.906 549.884L302.746 554.221L298.586 558.559L294.746 560.539C292.634 561.628 289.614 562.889 288.034 563.34L285.161 564.16L280.451 564.47L275.741 564.779L271.324 563.882L266.906 562.986L262.664 560.935L258.421 558.884L254.134 554.634L249.847 550.384L248.287 547.634C246.426 544.352 245.448 541.587 244.421 536.701L243.656 533.068V529.085V525.102L244.674 522.08C245.234 520.418 246.749 516.994 248.041 514.471L250.39 509.884L253.898 506.381L257.406 502.879L261.778 500.381L266.149 497.884L266.311 462.884L266.473 427.884L267.37 423.884L268.268 419.884L270.587 415.645L272.906 411.407L276.904 407.214L280.902 403.021L284.716 401.104L288.529 399.187L293.189 398.378L297.849 397.57L318.025 397.382L338.2 397.195L340.456 397.874L342.712 398.552L346.038 398.339L349.365 398.125L349.886 397.604L350.406 397.084L350.515 374.234L350.623 351.384L350.158 350.634L349.694 349.884L345.8 350.024C343.659 350.102 306.606 350.327 263.461 350.524L185.015 350.884L184.673 351.634C184.485 352.046 183.448 354.169 182.369 356.352L180.406 360.32L177.692 363.265C174.303 366.942 169.984 370.05 164.862 372.495L160.906 374.384L152.906 374.358L144.906 374.331L141.045 372.974C138.921 372.228 135.856 370.84 134.235 369.89L131.287 368.163L127.597 364.238L123.906 360.313L121.769 356.055L119.632 351.797L118.832 347.59L118.033 343.384L118.327 338.634L118.622 333.884L119.394 330.884L120.166 327.884L122.223 323.683L124.279 319.483L127.498 316.312C131.639 312.231 134.127 310.545 139.798 307.973L144.406 305.884L152.406 305.895L160.406 305.906L164.423 307.514L168.439 309.122L171.15 311.003C175.848 314.262 180.891 320.19 183.731 325.794C184.314 326.943 185.019 328.03 185.298 328.209L185.805 328.535L263.356 328.646C306.009 328.707 342.79 328.859 345.091 328.985L349.276 329.214L349.712 328.778L350.148 328.342L350.242 211.863L350.336 95.3837L349.523 90.3837C349.077 87.6337 348.452 83.5837 348.135 81.3837L347.56 77.3837L345.412 71.6337L343.264 65.8837L341.105 62.1337C337.627 56.0898 333.602 50.7405 328.376 45.2159L323.487 40.0481L319.791 37.3144C314.877 33.6804 311.166 31.7048 303.637 28.7145L297.368 26.2245L290.99 24.9105L284.611 23.5965L276.417 23.606L268.223 23.6154L263.382 24.6644C256.574 26.1393 251.871 27.758 245.251 30.9047L239.519 33.6294L234.601 36.9455L229.683 40.2616L225.021 45.0726L220.358 49.8837L216.498 55.0379L212.638 60.1922L210.575 64.2879C208.5 68.4065 204.656 79.0762 204.656 80.7176V81.5985L205.531 82.0416C206.013 82.2854 207.787 82.7686 209.475 83.1156L212.544 83.7464L213.444 83.2428L214.343 82.7392L216.313 83.9827C217.397 84.6666 219.737 85.7736 221.515 86.4427C223.293 87.1118 227.708 89.0786 231.327 90.8134L237.906 93.9674L243.733 98.0195C246.938 100.248 251.481 103.555 253.829 105.367L258.099 108.663L263.395 114.262C266.308 117.342 269.462 120.992 270.405 122.373L272.117 124.884L272.729 127.216L273.341 129.548L272.399 132.658L271.457 135.768L269.064 137.66L266.671 139.551L264.842 140.155L263.012 140.759L260.305 140.479L257.597 140.2L255.247 138.692L252.897 137.184L247.823 131.784L242.749 126.384L238.578 122.985C236.284 121.116 232.494 118.244 230.156 116.604L225.906 113.622L220.906 111.151C208.963 105.25 199.755 102.824 186.816 102.172L178.406 101.747L173.156 102.191C170.269 102.435 166.331 102.968 164.406 103.376C162.481 103.784 159.297 104.463 157.33 104.886L153.753 105.655L148.57 107.827C145.72 109.021 140.804 111.257 137.647 112.795L131.906 115.592L127.566 118.738C118.377 125.397 112.239 131.644 105.003 141.697L101.18 147.009L98.6007 152.197C92.7615 163.942 90.395 171.867 88.609 185.657L87.5436 193.884L87.8136 199.889L88.0837 205.894L89.1884 210.639C89.7961 213.248 90.4754 215.585 90.6982 215.832L91.1031 216.28L94.2547 215.423C95.9881 214.952 98.5314 214.152 99.9064 213.645L102.406 212.724L110.906 211.196C115.581 210.356 121.881 209.436 124.906 209.151L130.406 208.634L135.406 208.927L140.406 209.219L145.156 210.144C147.769 210.652 151.031 211.215 152.406 211.395C163.455 212.838 183.708 220.116 192.83 225.922C205.997 234.302 209.533 237.042 217.943 245.384L223.488 250.884L227.189 255.608C231.984 261.729 232.77 262.831 234.697 266.134C235.58 267.646 237.03 270.009 237.92 271.384C238.809 272.759 240.608 276.134 241.917 278.884L244.296 283.884L244.296 286.456L244.296 289.029L243.237 291.216L242.179 293.403L239.915 295.295L237.652 297.187L234.964 297.751L232.276 298.315L229.952 297.428L227.628 296.54L225.267 294.665L222.906 292.789L219.938 287.087C213.29 274.314 205.471 264.37 195.156 255.568C186.674 248.329 179.014 243.707 168.794 239.661C161.611 236.818 149.51 233.815 140.37 232.608L136.406 232.085L130.119 232.086L123.832 232.087L120.369 232.622C108.725 234.42 88.0083 240.631 83.7139 243.611C82.9948 244.11 80.0837 246.021 77.2449 247.856C74.4062 249.692 69.5687 253.061 66.4949 255.344L60.9064 259.493L56.6131 263.689L52.3198 267.884L48.5464 272.884C46.471 275.634 43.1448 280.343 41.1549 283.348L37.5368 288.812L35.0406 294.098C33.6677 297.005 31.6627 301.634 30.585 304.384C29.5073 307.134 28.4101 309.895 28.1468 310.519C27.2523 312.641 25.124 322.693 24.3887 328.267L23.6564 333.82V342.451V351.082L24.4292 356.978L25.2019 362.873L26.7155 368.878L28.2292 374.884L30.7522 381.634C35.5703 394.524 40.7042 403.645 47.9463 412.181L51.7163 416.624L58.8113 423.054C62.7136 426.59 67.6893 430.759 69.8683 432.317L73.8303 435.151L79.3683 437.831C82.4142 439.305 88.3939 441.977 92.6564 443.769L100.406 447.028L103.656 447.817C105.444 448.252 109.831 449.104 113.406 449.712L119.906 450.816L131.156 450.849L142.406 450.882L148.016 449.742L153.626 448.601L160.603 446.153C189.017 436.179 207.315 421.336 221.911 396.42C223.51 393.69 225.584 390.61 226.519 389.574L228.22 387.692L230.346 386.663L232.472 385.634H234.656H236.841L239.016 386.687L241.192 387.74L242.924 390.009L244.657 392.278L245.2 394.295L245.743 396.313L245.416 398.492C245.019 401.138 242.959 406.948 242.019 408.069C241.644 408.517 240.362 410.571 239.17 412.634C237.978 414.696 235.073 418.971 232.714 422.134L228.425 427.884L222.251 434.225L216.077 440.567L208.151 446.734C197.042 455.38 188.504 460.296 175.906 465.302L168.906 468.084L162.156 469.825L155.406 471.567L149.406 472.348C146.106 472.778 141.883 473.355 140.022 473.631C133.651 474.577 126.441 474.273 111.338 472.42L105.269 471.676L98.2415 469.922L91.2135 468.168L89.31 467.185C85.7562 465.349 81.0196 463.134 80.6494 463.134C80.4466 463.134 79.1445 465.102 77.7558 467.509L75.231 471.884L73.3953 476.884C71.0981 483.141 67.9182 495.51 66.5824 503.384L65.5645 509.384L65.8751 517.634L66.1857 525.884L67.3742 532.634C68.0279 536.346 69.1416 541.436 69.8491 543.944L71.1355 548.505L73.8915 554.645C79.5523 567.257 87.0776 577.413 97.504 586.511L101.088 589.638L107.11 593.375C114.234 597.796 121.25 601.382 128.167 604.138L133.189 606.138L137.604 607.122C140.032 607.663 144.766 608.463 148.125 608.9L154.231 609.694L154.996 609.059L155.761 608.424L155.375 605.404C155.162 603.743 155.004 599.684 155.023 596.384L155.059 590.384L155.639 588.134C155.958 586.896 156.544 584.421 156.94 582.634C160.72 565.604 164.865 555.765 174.001 542.134C177.678 536.648 178.23 535.889 182.791 530.052C186.766 524.965 188.796 523.087 192.158 521.383L194.623 520.134L197.515 520.139L200.406 520.144L203.507 522.111L206.607 524.078L207.674 526.17L208.742 528.262L209.017 530.929L209.292 533.596L207.969 536.3L206.646 539.004L203.011 543.194C198.628 548.246 193.812 554.798 190.006 560.884L187.193 565.384L185.009 570.634L182.826 575.884L181.282 581.634C179.843 586.994 178.591 593.616 177.785 600.134C177.598 601.647 177.466 605.922 177.492 609.634L177.538 616.384L178.826 622.634C181.754 636.843 184.934 644.764 192.061 655.604L195.837 661.346L199.792 665.465L203.747 669.585L210.326 674.537C225.744 686.141 235.983 690.363 254.156 692.61C262.893 693.69 269.737 693.533 277.806 692.067ZM284.538 293.636C283.786 293.409 282.435 292.769 281.535 292.213L279.9 291.203L278.495 288.427L277.089 285.651L277.102 267.267L277.115 248.884L276.742 247.142L276.369 245.401L273.92 244.492C269.247 242.757 263.518 237.546 259.241 231.142L257.166 228.034L256.105 224.709L255.044 221.384L254.784 216.244L254.524 211.104L255.147 207.244C255.925 202.422 257.099 199.414 259.851 195.192L262.008 191.884L264.957 189.031C272.86 181.388 278.448 179.337 291.156 179.412L295.906 179.44L300.156 180.831L304.406 182.222L307.156 183.89C308.669 184.807 311.298 186.818 312.999 188.359L316.092 191.16L318.61 195.498L321.127 199.835L322.46 205.567L323.792 211.298L323.463 215.981L323.134 220.665L322.352 223.024C321.921 224.322 320.471 227.634 319.13 230.384L316.691 235.384L314.418 237.746C311.705 240.566 307.168 243.664 303.953 244.892C302.672 245.382 301.462 246.03 301.265 246.333L300.906 246.884L300.629 266.134L300.352 285.384L299.285 287.635L298.219 289.887L296.813 291.203C296.039 291.927 294.686 292.883 293.806 293.327L292.206 294.134L289.056 294.091C287.324 294.067 285.291 293.862 284.538 293.636ZM293.306 223.828C295.344 222.801 298.037 220.275 298.949 218.533L299.656 217.183L299.654 213.533L299.652 209.884L298.731 208.384C297.377 206.18 294.636 203.613 292.788 202.82L291.17 202.126L288.538 202.437C287.091 202.608 285.212 203.032 284.364 203.381L282.822 204.014L281.072 206.199C279.131 208.624 278.373 210.361 277.898 213.475L277.58 215.566L278.538 217.725L279.496 219.884L281.563 221.746L283.631 223.608L284.768 223.851C285.394 223.985 286.356 224.19 286.906 224.306C287.456 224.422 288.761 224.544 289.806 224.576L291.706 224.634L293.306 223.828ZM481.609 687.647C482.542 687.38 484.065 686.649 484.993 686.022L486.682 684.884L488.169 681.929L489.656 678.974V676.348V673.721L488.031 670.59L486.406 667.46L484.203 666.297L481.999 665.134L478.703 665.145L475.406 665.156L473.402 666.066L471.398 666.977L469.744 668.861C467.643 671.254 467.156 672.562 467.156 675.826V678.452L467.895 680.938L468.633 683.424L470.118 684.847L471.602 686.269L474.254 687.185C477.271 688.227 479.171 688.346 481.609 687.647ZM631.26 590.346L633.406 588.839L634.656 586.611L635.906 584.384V580.597V576.811L634.601 574.839L633.296 572.867L631.144 571.375L628.992 569.884H625.438H621.884L619.246 571.576L616.608 573.269L615.589 575.265L614.571 577.261L614.299 579.891L614.028 582.522L614.898 585.288L615.768 588.054L617.102 589.332C617.836 590.035 619.329 590.948 620.421 591.362L622.406 592.115L625.76 591.984L629.113 591.853L631.26 590.346ZM281.593 541.856L284.211 541.079L286.156 539.134L288.101 537.189L288.879 534.57C289.306 533.13 289.656 531.086 289.656 530.027V528.102L288.881 526.243C287.968 524.054 285.517 521.372 283.406 520.253L281.906 519.457L278.334 519.42L274.762 519.384L272.584 520.947L270.406 522.51L268.919 524.887L267.432 527.264L267.255 530.574L267.079 533.884L267.87 535.749L268.662 537.615L271.207 539.627C272.607 540.733 274.237 541.741 274.829 541.867C278.999 542.75 278.583 542.75 281.593 541.856ZM426.35 522.384C443.323 520.887 470 513.814 475.758 509.285C476.115 509.004 479.669 507.089 483.656 505.029L490.906 501.283L497.382 496.897C517.035 483.586 532.395 468.172 547.522 446.579L551.588 440.775L555.887 431.851C558.252 426.943 561.096 420.442 562.208 417.405C563.32 414.368 565.012 409.781 565.969 407.212C568.133 401.399 569.865 393.81 571.46 383.163L572.692 374.942L573.166 367.413C573.803 357.324 573.758 353.97 572.849 343.384C572.079 334.42 571.861 333.011 569.42 321.134L568.135 314.884L565.582 307.134C562.137 296.675 559.244 289.667 555.113 281.769L551.652 275.154L546.586 267.552C540.189 257.955 537.384 254.29 531.012 247.207L525.906 241.531L519.406 235.67C515.831 232.446 510.763 228.138 508.143 226.096C503.11 222.173 501.451 221.14 487.906 213.492L479.406 208.692L473.156 205.984C465.289 202.576 457.497 199.898 452.656 198.939C442.684 196.965 437.372 196.072 431.406 195.367L424.906 194.6L415.156 194.603L405.406 194.606L401.906 195.068C386.634 197.081 374.849 198.995 373.593 199.668L372.755 200.116L372.71 235.625L372.664 271.134H373.512C373.978 271.134 376.851 269.913 379.896 268.421L385.433 265.708L390.42 264.459C395.838 263.102 400.06 262.43 408.119 261.638L413.331 261.127L421.119 261.644C431.379 262.326 433.981 262.776 441.513 265.167L447.845 267.178L453.547 270.281C456.683 271.987 460.072 274.106 461.078 274.988L462.907 276.592L461.565 276.613C460.826 276.624 458.576 276.971 456.565 277.383L452.907 278.133L448.341 280.376L443.775 282.619L440.091 286.55L436.407 290.481L434.06 294.453L431.713 298.425L430.363 302.904L429.013 307.384L428.965 312.384L428.916 317.384L430.083 321.134C430.725 323.196 432.275 326.873 433.528 329.304L435.804 333.724L439.355 337.341L442.907 340.958L448.195 343.486L453.484 346.014L456.095 346.574L458.706 347.134L462.806 347.129C465.061 347.129 468.369 346.89 470.157 346.604L473.407 346.083L477.407 344.128L481.407 342.173L484.19 339.778C487.857 336.622 490.038 333.794 492.786 328.632L495.049 324.382L495.613 321.882C495.923 320.507 496.36 317.695 496.584 315.632L496.99 311.882L499.087 316.234C500.24 318.628 501.96 322.733 502.91 325.356L504.636 330.126L505.606 335.004C506.139 337.687 506.851 342.298 507.188 345.249L507.8 350.616L507.503 360.749L507.206 370.882L506.489 375.7C502.858 400.086 487.039 424.592 465.638 438.985L461.869 441.519L454.638 445.058C447.295 448.651 441.259 450.976 434.864 452.673L431.322 453.614L425.614 454.119C422.475 454.397 417.094 454.624 413.657 454.624L407.407 454.624L401.407 453.912C392.719 452.882 382.237 449.963 376.153 446.881L373.535 445.554L373.092 445.997L372.65 446.439L372.778 481.642L372.907 516.844L374.157 517.453C374.844 517.788 376.644 518.301 378.157 518.593C379.669 518.884 382.819 519.49 385.157 519.938C387.494 520.386 393.344 521.267 398.157 521.897L406.907 523.041L412.407 523.084L417.907 523.127L426.35 522.384ZM530.262 502.829C531.117 502.387 536.562 500.125 542.362 497.802L552.906 493.58L559.406 490.168C562.981 488.292 569.546 484.923 573.995 482.682C583.043 478.126 594.738 471.44 601.156 467.156C603.494 465.596 606.74 463.434 608.37 462.352C630.488 447.664 647.781 434.178 665.647 417.681C685.324 399.513 710.201 372.337 716.83 361.769L718.156 359.654V358.675V357.697L715.94 354.459C709.374 344.869 687.896 321.301 671.899 306.132C651.508 286.797 621.612 263.831 598.707 249.907C596.342 248.469 592.831 246.319 590.906 245.13C586.435 242.368 576.764 237.104 570.656 234.108C568.044 232.827 563.827 230.622 561.286 229.209C558.744 227.796 554.582 225.82 552.036 224.819C549.489 223.818 544.65 221.696 541.281 220.102L535.156 217.205V217.846V218.486L538.151 220.839L541.145 223.191L545.009 228.037C547.134 230.703 550.083 234.234 551.561 235.884C559.154 244.359 571.715 263.357 576.355 273.384C581.35 284.175 585.907 295.572 587.152 300.384C587.65 302.309 588.638 305.841 589.347 308.233C591.531 315.596 594.274 330.186 595.251 339.634L595.897 345.884L595.902 359.134L595.907 372.384L595.254 377.884C591.742 407.478 582.393 434.849 568.937 454.932C568.402 455.731 565.901 459.534 563.378 463.384C556.95 473.195 555.462 474.991 543.549 487.309L532.984 498.233L530.322 500.244L527.659 502.254V502.944V503.634H528.184C528.473 503.634 529.409 503.272 530.264 502.829H530.262ZM157.456 350.163L159.584 349.222L160.828 347.303L162.072 345.384L162.647 342.522L163.222 339.661L162.883 337.404L162.545 335.148L160.54 332.87L158.535 330.592L156.615 329.613L154.696 328.634H152.024H149.352L147.129 330.058C144.392 331.812 143.415 332.893 142.425 335.261L141.656 337.102V340.468V343.835L143.269 346.496L144.881 349.156L147.394 350.431L149.906 351.705L152.617 351.405L155.327 351.105L157.456 350.163ZM629.503 146.883L632.03 146.132L634.027 143.966L636.024 141.8L636.651 139.899L637.278 137.999L636.958 135.273C636.443 130.892 634.351 127.999 630.547 126.41L628.688 125.634L626.297 125.645L623.906 125.656L621.906 126.567L619.906 127.477L618.058 129.527L616.21 131.577L615.638 133.703L615.065 135.828L615.389 138.421L615.713 141.014L617.24 143.089L618.765 145.164L620.333 145.975C623.808 147.772 625.833 147.973 629.503 146.883ZM482.433 50.9003L484.906 49.6669L486.531 46.9471L488.156 44.2274V41.8985V39.5696L486.96 36.9533C486.301 35.5144 485.162 33.6229 484.428 32.75L483.092 31.1629L481.249 30.6511C480.236 30.3696 478.394 30.1429 477.156 30.1474L474.906 30.1556L472.886 31.0735L470.865 31.9914L469.492 33.6229C468.737 34.5202 467.77 36.071 467.344 37.069L466.569 38.8837L466.799 41.9365L467.03 44.9893L468.34 47.226L469.651 49.4626L472.029 50.786L474.406 52.1093L477.183 52.1215L479.96 52.1336L482.433 50.9003Z" fill="#A8B9C7"/>
<mask id="path-3-outside-1_2_40" maskUnits="userSpaceOnUse" x="30.8586" y="184.788" width="692" height="136" fill="black">
<rect fill="white" x="30.8586" y="184.788" width="692" height="136"/>
<path d="M85.3974 310.708C76.0107 310.708 68.0107 308.308 61.3974 303.508C54.8907 298.708 49.8774 291.988 46.3574 283.348C42.9441 274.601 41.2374 264.468 41.2374 252.948C41.2374 241.321 42.9441 231.188 46.3574 222.548C49.8774 213.801 54.9441 207.028 61.5574 202.228C68.1707 197.321 76.1174 194.868 85.3974 194.868C97.4507 194.868 107.051 198.174 114.197 204.788C121.344 211.294 125.504 220.148 126.677 231.348H107.957C106.997 225.481 104.597 220.628 100.757 216.788C97.0241 212.841 91.8507 210.868 85.2374 210.868C76.8107 210.868 70.2507 214.601 65.5574 222.068C60.8641 229.534 58.5174 239.828 58.5174 252.948C58.5174 265.961 60.8641 276.201 65.5574 283.668C70.2507 291.028 76.8107 294.708 85.2374 294.708C92.0641 294.708 97.2907 292.948 100.917 289.428C104.544 285.801 106.891 281.054 107.957 275.188H126.677C124.971 286.174 120.651 294.868 113.717 301.268C106.784 307.561 97.3441 310.708 85.3974 310.708ZM145.975 308.788V196.788H162.935V293.588H218.135V308.788H145.975ZM233.432 308.788L266.872 196.788H287.032L320.472 308.788H302.072L294.552 281.908H259.352L251.832 308.788H233.432ZM276.472 220.788L263.192 268.308H290.712L277.432 220.788H276.472ZM336.89 308.788V196.788H373.53C382.277 196.788 389.477 198.281 395.13 201.268C400.89 204.254 405.157 208.308 407.93 213.428C410.81 218.441 412.25 224.148 412.25 230.548C412.25 237.801 410.383 244.254 406.65 249.908C403.023 255.454 397.423 259.508 389.85 262.068L413.37 308.788H393.69L372.25 264.468H353.85V308.788H336.89ZM353.85 249.108H372.57C380.25 249.108 385.85 247.401 389.37 243.988C392.997 240.574 394.81 236.094 394.81 230.548C394.81 224.894 393.05 220.414 389.53 217.108C386.01 213.694 380.303 211.988 372.41 211.988H353.85V249.108ZM436.027 308.788V293.748H460.347V211.828H436.347V196.788H501.307V211.828H477.307V293.748H501.627V308.788H436.027ZM556.285 308.788V211.988H526.205V196.788H603.325V211.988H573.245V308.788H556.285ZM652.222 308.788V266.228L615.262 196.788H634.622L660.702 248.308L686.782 196.788H706.142L669.182 266.228V308.788H652.222Z"/>
</mask>
<path d="M85.3974 310.708C76.0107 310.708 68.0107 308.308 61.3974 303.508C54.8907 298.708 49.8774 291.988 46.3574 283.348C42.9441 274.601 41.2374 264.468 41.2374 252.948C41.2374 241.321 42.9441 231.188 46.3574 222.548C49.8774 213.801 54.9441 207.028 61.5574 202.228C68.1707 197.321 76.1174 194.868 85.3974 194.868C97.4507 194.868 107.051 198.174 114.197 204.788C121.344 211.294 125.504 220.148 126.677 231.348H107.957C106.997 225.481 104.597 220.628 100.757 216.788C97.0241 212.841 91.8507 210.868 85.2374 210.868C76.8107 210.868 70.2507 214.601 65.5574 222.068C60.8641 229.534 58.5174 239.828 58.5174 252.948C58.5174 265.961 60.8641 276.201 65.5574 283.668C70.2507 291.028 76.8107 294.708 85.2374 294.708C92.0641 294.708 97.2907 292.948 100.917 289.428C104.544 285.801 106.891 281.054 107.957 275.188H126.677C124.971 286.174 120.651 294.868 113.717 301.268C106.784 307.561 97.3441 310.708 85.3974 310.708ZM145.975 308.788V196.788H162.935V293.588H218.135V308.788H145.975ZM233.432 308.788L266.872 196.788H287.032L320.472 308.788H302.072L294.552 281.908H259.352L251.832 308.788H233.432ZM276.472 220.788L263.192 268.308H290.712L277.432 220.788H276.472ZM336.89 308.788V196.788H373.53C382.277 196.788 389.477 198.281 395.13 201.268C400.89 204.254 405.157 208.308 407.93 213.428C410.81 218.441 412.25 224.148 412.25 230.548C412.25 237.801 410.383 244.254 406.65 249.908C403.023 255.454 397.423 259.508 389.85 262.068L413.37 308.788H393.69L372.25 264.468H353.85V308.788H336.89ZM353.85 249.108H372.57C380.25 249.108 385.85 247.401 389.37 243.988C392.997 240.574 394.81 236.094 394.81 230.548C394.81 224.894 393.05 220.414 389.53 217.108C386.01 213.694 380.303 211.988 372.41 211.988H353.85V249.108ZM436.027 308.788V293.748H460.347V211.828H436.347V196.788H501.307V211.828H477.307V293.748H501.627V308.788H436.027ZM556.285 308.788V211.988H526.205V196.788H603.325V211.988H573.245V308.788H556.285ZM652.222 308.788V266.228L615.262 196.788H634.622L660.702 248.308L686.782 196.788H706.142L669.182 266.228V308.788H652.222Z" fill="white"/>
<path d="M61.3974 303.508L55.4609 311.555L55.4921 311.578L55.5234 311.601L61.3974 303.508ZM46.3574 283.348L37.0416 286.983L37.0685 287.052L37.0965 287.121L46.3574 283.348ZM46.3574 222.548L37.0804 218.814L37.0686 218.844L37.0569 218.873L46.3574 222.548ZM61.5574 202.228L67.4313 210.321L67.4738 210.29L67.5159 210.259L61.5574 202.228ZM114.197 204.788L107.406 212.127L107.435 212.155L107.465 212.182L114.197 204.788ZM126.677 231.348V241.348H137.78L136.623 230.306L126.677 231.348ZM107.957 231.348L98.0886 232.963L99.4608 241.348H107.957V231.348ZM100.757 216.788L93.4927 223.66L93.5881 223.761L93.6863 223.859L100.757 216.788ZM65.5574 222.068L57.091 216.746L57.091 216.746L65.5574 222.068ZM65.5574 283.668L57.091 288.989L57.1083 289.017L57.1258 289.044L65.5574 283.668ZM100.917 289.428L107.882 296.604L107.936 296.552L107.988 296.499L100.917 289.428ZM107.957 275.188V265.188H99.6116L98.1187 273.399L107.957 275.188ZM126.677 275.188L136.559 276.723L138.351 265.188H126.677V275.188ZM113.717 301.268L120.438 308.672L120.469 308.644L120.5 308.616L113.717 301.268ZM85.3974 310.708V300.708C77.7951 300.708 71.9309 298.797 67.2713 295.415L61.3974 303.508L55.5234 311.601C64.0905 317.819 74.2263 320.708 85.3974 320.708V310.708ZM61.3974 303.508L67.3339 295.46C62.5232 291.912 58.5531 286.778 55.6183 279.575L46.3574 283.348L37.0965 287.121C41.2017 297.197 47.2582 305.504 55.4609 311.555L61.3974 303.508ZM46.3574 283.348L55.6732 279.712C52.8018 272.354 51.2374 263.497 51.2374 252.948H41.2374H31.2374C31.2374 265.438 33.0863 276.848 37.0416 286.983L46.3574 283.348ZM41.2374 252.948H51.2374C51.2374 242.274 52.8069 233.439 55.6579 226.222L46.3574 222.548L37.0569 218.873C33.0812 228.937 31.2374 240.368 31.2374 252.948H41.2374ZM46.3574 222.548L55.6343 226.281C58.5626 219.005 62.562 213.855 67.4313 210.321L61.5574 202.228L55.6834 194.135C47.3261 200.201 41.1922 208.597 37.0804 218.814L46.3574 222.548ZM61.5574 202.228L67.5159 210.259C72.19 206.791 77.9782 204.868 85.3974 204.868V194.868V184.868C74.2565 184.868 64.1514 187.851 55.5989 194.197L61.5574 202.228ZM85.3974 194.868V204.868C95.5599 204.868 102.521 207.607 107.406 212.127L114.197 204.788L120.989 197.448C111.58 188.741 99.3416 184.868 85.3974 184.868V194.868ZM114.197 204.788L107.465 212.182C112.503 216.769 115.769 223.202 116.732 232.39L126.677 231.348L136.623 230.306C135.239 217.094 130.185 205.82 120.93 197.393L114.197 204.788ZM126.677 231.348V221.348H107.957V231.348V241.348H126.677V231.348ZM107.957 231.348L117.826 229.733C116.562 222.005 113.29 215.178 107.828 209.717L100.757 216.788L93.6863 223.859C95.9045 226.077 97.4332 228.957 98.0886 232.963L107.957 231.348ZM100.757 216.788L108.022 209.916C102 203.549 93.9572 200.868 85.2374 200.868V210.868V220.868C89.7443 220.868 92.0482 222.133 93.4927 223.66L100.757 216.788ZM85.2374 210.868V200.868C73.1825 200.868 63.5113 206.532 57.091 216.746L65.5574 222.068L74.0238 227.389C76.9902 222.67 80.4389 220.868 85.2374 220.868V210.868ZM65.5574 222.068L57.091 216.746C51.0199 226.405 48.5174 238.804 48.5174 252.948H58.5174H68.5174C68.5174 240.851 70.7082 232.664 74.0238 227.389L65.5574 222.068ZM58.5174 252.948H48.5174C48.5174 267.003 51.0267 279.342 57.091 288.989L65.5574 283.668L74.0238 278.346C70.7015 273.061 68.5174 264.919 68.5174 252.948H58.5174ZM65.5574 283.668L57.1258 289.044C63.5759 299.159 73.2494 304.708 85.2374 304.708V294.708V284.708C80.3721 284.708 76.9255 282.896 73.989 278.291L65.5574 283.668ZM85.2374 294.708V304.708C93.7309 304.708 101.812 302.495 107.882 296.604L100.917 289.428L93.9526 282.252C92.7691 283.401 90.3972 284.708 85.2374 284.708V294.708ZM100.917 289.428L107.988 296.499C113.277 291.211 116.426 284.51 117.796 276.977L107.957 275.188L98.1187 273.399C97.355 277.599 95.8115 280.391 93.8463 282.357L100.917 289.428ZM107.957 275.188V285.188H126.677V275.188V265.188H107.957V275.188ZM126.677 275.188L116.796 273.653C115.372 282.822 111.924 289.314 106.935 293.92L113.717 301.268L120.5 308.616C129.377 300.421 134.57 289.527 136.559 276.723L126.677 275.188ZM113.717 301.268L106.996 293.863C102.368 298.064 95.5678 300.708 85.3974 300.708V310.708V320.708C99.1203 320.708 111.2 317.058 120.438 308.672L113.717 301.268ZM145.975 308.788H135.975V318.788H145.975V308.788ZM145.975 196.788V186.788H135.975V196.788H145.975ZM162.935 196.788H172.935V186.788H162.935V196.788ZM162.935 293.588H152.935V303.588H162.935V293.588ZM218.135 293.588H228.135V283.588H218.135V293.588ZM218.135 308.788V318.788H228.135V308.788H218.135ZM145.975 308.788H155.975V196.788H145.975H135.975V308.788H145.975ZM145.975 196.788V206.788H162.935V196.788V186.788H145.975V196.788ZM162.935 196.788H152.935V293.588H162.935H172.935V196.788H162.935ZM162.935 293.588V303.588H218.135V293.588V283.588H162.935V293.588ZM218.135 293.588H208.135V308.788H218.135H228.135V293.588H218.135ZM218.135 308.788V298.788H145.975V308.788V318.788H218.135V308.788ZM233.432 308.788L223.85 305.927L220.01 318.788H233.432V308.788ZM266.872 196.788V186.788H259.422L257.29 193.927L266.872 196.788ZM287.032 196.788L296.614 193.927L294.483 186.788H287.032V196.788ZM320.472 308.788V318.788H333.894L330.054 305.927L320.472 308.788ZM302.072 308.788L292.442 311.482L294.486 318.788H302.072V308.788ZM294.552 281.908L304.183 279.214L302.139 271.908H294.552V281.908ZM259.352 281.908V271.908H251.766L249.722 279.214L259.352 281.908ZM251.832 308.788V318.788H259.419L261.463 311.482L251.832 308.788ZM276.472 220.788V210.788H268.884L266.841 218.096L276.472 220.788ZM263.192 268.308L253.561 265.616L250.015 278.308H263.192V268.308ZM290.712 268.308V278.308H303.89L300.343 265.616L290.712 268.308ZM277.432 220.788L287.063 218.096L285.021 210.788H277.432V220.788ZM233.432 308.788L243.014 311.649L276.454 199.649L266.872 196.788L257.29 193.927L223.85 305.927L233.432 308.788ZM266.872 196.788V206.788H287.032V196.788V186.788H266.872V196.788ZM287.032 196.788L277.45 199.649L310.89 311.649L320.472 308.788L330.054 305.927L296.614 193.927L287.032 196.788ZM320.472 308.788V298.788H302.072V308.788V318.788H320.472V308.788ZM302.072 308.788L311.703 306.094L304.183 279.214L294.552 281.908L284.922 284.602L292.442 311.482L302.072 308.788ZM294.552 281.908V271.908H259.352V281.908V291.908H294.552V281.908ZM259.352 281.908L249.722 279.214L242.202 306.094L251.832 308.788L261.463 311.482L268.983 284.602L259.352 281.908ZM251.832 308.788V298.788H233.432V308.788V318.788H251.832V308.788ZM276.472 220.788L266.841 218.096L253.561 265.616L263.192 268.308L272.823 270.999L286.103 223.479L276.472 220.788ZM263.192 268.308V278.308H290.712V268.308V258.308H263.192V268.308ZM290.712 268.308L300.343 265.616L287.063 218.096L277.432 220.788L267.801 223.479L281.081 270.999L290.712 268.308ZM277.432 220.788V210.788H276.472V220.788V230.788H277.432V220.788ZM336.89 308.788H326.89V318.788H336.89V308.788ZM336.89 196.788V186.788H326.89V196.788H336.89ZM395.13 201.268L390.459 210.11L390.493 210.128L390.527 210.145L395.13 201.268ZM407.93 213.428L399.137 218.191L399.197 218.301L399.259 218.409L407.93 213.428ZM406.65 249.908L398.305 244.397L398.293 244.416L398.28 244.435L406.65 249.908ZM389.85 262.068L386.648 252.594L375.741 256.281L380.918 266.564L389.85 262.068ZM413.37 308.788V318.788H429.6L422.302 304.291L413.37 308.788ZM393.69 308.788L384.688 313.142L387.419 318.788H393.69V308.788ZM372.25 264.468L381.252 260.113L378.521 254.468H372.25V264.468ZM353.85 264.468V254.468H343.85V264.468H353.85ZM353.85 308.788V318.788H363.85V308.788H353.85ZM353.85 249.108H343.85V259.108H353.85V249.108ZM389.37 243.988L382.516 236.706L382.462 236.757L382.408 236.809L389.37 243.988ZM389.53 217.108L382.568 224.287L382.625 224.342L382.683 224.396L389.53 217.108ZM353.85 211.988V201.988H343.85V211.988H353.85ZM336.89 308.788H346.89V196.788H336.89H326.89V308.788H336.89ZM336.89 196.788V206.788H373.53V196.788V186.788H336.89V196.788ZM373.53 196.788V206.788C381.218 206.788 386.676 208.111 390.459 210.11L395.13 201.268L399.801 192.426C392.277 188.451 383.335 186.788 373.53 186.788V196.788ZM395.13 201.268L390.527 210.145C394.721 212.32 397.424 215.029 399.137 218.191L407.93 213.428L416.723 208.665C412.889 201.587 407.059 196.189 399.733 192.39L395.13 201.268ZM407.93 213.428L399.259 218.409C401.177 221.749 402.25 225.704 402.25 230.548H412.25H422.25C422.25 222.591 420.442 215.133 416.601 208.446L407.93 213.428ZM412.25 230.548H402.25C402.25 235.987 400.882 240.496 398.305 244.397L406.65 249.908L414.995 255.418C419.885 248.013 422.25 239.615 422.25 230.548H412.25ZM406.65 249.908L398.28 244.435C396.117 247.743 392.551 250.599 386.648 252.594L389.85 262.068L393.052 271.541C402.295 268.417 409.929 263.165 415.02 255.38L406.65 249.908ZM389.85 262.068L380.918 266.564L404.438 313.284L413.37 308.788L422.302 304.291L398.782 257.571L389.85 262.068ZM413.37 308.788V298.788H393.69V308.788V318.788H413.37V308.788ZM393.69 308.788L402.692 304.433L381.252 260.113L372.25 264.468L363.248 268.822L384.688 313.142L393.69 308.788ZM372.25 264.468V254.468H353.85V264.468V274.468H372.25V264.468ZM353.85 264.468H343.85V308.788H353.85H363.85V264.468H353.85ZM353.85 308.788V298.788H336.89V308.788V318.788H353.85V308.788ZM353.85 249.108V259.108H372.57V249.108V239.108H353.85V249.108ZM372.57 249.108V259.108C381.426 259.108 390.127 257.183 396.331 251.167L389.37 243.988L382.408 236.809C381.573 237.619 379.073 239.108 372.57 239.108V249.108ZM389.37 243.988L396.224 251.27C402.097 245.742 404.81 238.505 404.81 230.548H394.81H384.81C384.81 233.684 383.896 235.407 382.516 236.706L389.37 243.988ZM394.81 230.548H404.81C404.81 222.647 402.254 215.341 396.377 209.819L389.53 217.108L382.683 224.396C383.845 225.488 384.81 227.142 384.81 230.548H394.81ZM389.53 217.108L396.491 209.929C390.245 203.872 381.388 201.988 372.41 201.988V211.988V221.988C379.219 221.988 381.774 223.517 382.568 224.287L389.53 217.108ZM372.41 211.988V201.988H353.85V211.988V221.988H372.41V211.988ZM353.85 211.988H343.85V249.108H353.85H363.85V211.988H353.85ZM436.027 308.788H426.027V318.788H436.027V308.788ZM436.027 293.748V283.748H426.027V293.748H436.027ZM460.347 293.748V303.748H470.347V293.748H460.347ZM460.347 211.828H470.347V201.828H460.347V211.828ZM436.347 211.828H426.347V221.828H436.347V211.828ZM436.347 196.788V186.788H426.347V196.788H436.347ZM501.307 196.788H511.307V186.788H501.307V196.788ZM501.307 211.828V221.828H511.307V211.828H501.307ZM477.307 211.828V201.828H467.307V211.828H477.307ZM477.307 293.748H467.307V303.748H477.307V293.748ZM501.627 293.748H511.627V283.748H501.627V293.748ZM501.627 308.788V318.788H511.627V308.788H501.627ZM436.027 308.788H446.027V293.748H436.027H426.027V308.788H436.027ZM436.027 293.748V303.748H460.347V293.748V283.748H436.027V293.748ZM460.347 293.748H470.347V211.828H460.347H450.347V293.748H460.347ZM460.347 211.828V201.828H436.347V211.828V221.828H460.347V211.828ZM436.347 211.828H446.347V196.788H436.347H426.347V211.828H436.347ZM436.347 196.788V206.788H501.307V196.788V186.788H436.347V196.788ZM501.307 196.788H491.307V211.828H501.307H511.307V196.788H501.307ZM501.307 211.828V201.828H477.307V211.828V221.828H501.307V211.828ZM477.307 211.828H467.307V293.748H477.307H487.307V211.828H477.307ZM477.307 293.748V303.748H501.627V293.748V283.748H477.307V293.748ZM501.627 293.748H491.627V308.788H501.627H511.627V293.748H501.627ZM501.627 308.788V298.788H436.027V308.788V318.788H501.627V308.788ZM556.285 308.788H546.285V318.788H556.285V308.788ZM556.285 211.988H566.285V201.988H556.285V211.988ZM526.205 211.988H516.205V221.988H526.205V211.988ZM526.205 196.788V186.788H516.205V196.788H526.205ZM603.325 196.788H613.325V186.788H603.325V196.788ZM603.325 211.988V221.988H613.325V211.988H603.325ZM573.245 211.988V201.988H563.245V211.988H573.245ZM573.245 308.788V318.788H583.245V308.788H573.245ZM556.285 308.788H566.285V211.988H556.285H546.285V308.788H556.285ZM556.285 211.988V201.988H526.205V211.988V221.988H556.285V211.988ZM526.205 211.988H536.205V196.788H526.205H516.205V211.988H526.205ZM526.205 196.788V206.788H603.325V196.788V186.788H526.205V196.788ZM603.325 196.788H593.325V211.988H603.325H613.325V196.788H603.325ZM603.325 211.988V201.988H573.245V211.988V221.988H603.325V211.988ZM573.245 211.988H563.245V308.788H573.245H583.245V211.988H573.245ZM573.245 308.788V298.788H556.285V308.788V318.788H573.245V308.788ZM652.222 308.788H642.222V318.788H652.222V308.788ZM652.222 266.228H662.222V263.732L661.05 261.529L652.222 266.228ZM615.262 196.788V186.788H598.612L606.435 201.486L615.262 196.788ZM634.622 196.788L643.544 192.271L640.769 186.788H634.622V196.788ZM660.702 248.308L651.78 252.824L660.702 270.449L669.624 252.824L660.702 248.308ZM686.782 196.788V186.788H680.636L677.86 192.271L686.782 196.788ZM706.142 196.788L714.97 201.486L722.793 186.788H706.142V196.788ZM669.182 266.228L660.355 261.529L659.182 263.732V266.228H669.182ZM669.182 308.788V318.788H679.182V308.788H669.182ZM652.222 308.788H662.222V266.228H652.222H642.222V308.788H652.222ZM652.222 266.228L661.05 261.529L624.09 192.089L615.262 196.788L606.435 201.486L643.395 270.926L652.222 266.228ZM615.262 196.788V206.788H634.622V196.788V186.788H615.262V196.788ZM634.622 196.788L625.7 201.304L651.78 252.824L660.702 248.308L669.624 243.791L643.544 192.271L634.622 196.788ZM660.702 248.308L669.624 252.824L695.704 201.304L686.782 196.788L677.86 192.271L651.78 243.791L660.702 248.308ZM686.782 196.788V206.788H706.142V196.788V186.788H686.782V196.788ZM706.142 196.788L697.315 192.089L660.355 261.529L669.182 266.228L678.01 270.926L714.97 201.486L706.142 196.788ZM669.182 266.228H659.182V308.788H669.182H679.182V266.228H669.182ZM669.182 308.788V298.788H652.222V308.788V318.788H669.182V308.788Z" fill="#184366" mask="url(#path-3-outside-1_2_40)"/>
<mask id="path-5-outside-2_2_40" maskUnits="userSpaceOnUse" x="131.859" y="392.788" width="485" height="136" fill="black">
<rect fill="white" x="131.859" y="392.788" width="485" height="136"/>
<path d="M141.975 516.788V404.788H181.975C193.602 404.788 202.402 407.454 208.375 412.788C214.348 418.121 217.335 425.001 217.335 433.428C217.335 439.934 215.628 445.214 212.215 449.268C208.802 453.321 204.855 456.254 200.375 458.068V459.188C205.708 461.108 210.295 464.254 214.135 468.628C217.975 472.894 219.895 478.548 219.895 485.588C219.895 491.348 218.455 496.628 215.575 501.428C212.802 506.121 208.695 509.854 203.255 512.628C197.815 515.401 191.148 516.788 183.255 516.788H141.975ZM158.935 451.508H179.895C186.402 451.508 191.362 450.228 194.775 447.668C198.188 445.001 199.895 441.001 199.895 435.668C199.895 425.108 193.122 419.828 179.575 419.828H158.935V451.508ZM158.935 501.108H181.015C187.948 501.108 193.282 499.614 197.015 496.628C200.748 493.641 202.615 489.268 202.615 483.508C202.615 477.854 200.642 473.534 196.695 470.548C192.748 467.454 187.415 465.908 180.695 465.908H158.935V501.108ZM276.952 518.708C267.886 518.708 260.046 516.361 253.432 511.668C246.819 506.974 241.752 500.308 238.232 491.668C234.712 483.028 232.952 472.734 232.952 460.788C232.952 448.841 234.712 438.548 238.232 429.908C241.752 421.268 246.819 414.601 253.432 409.908C260.046 405.214 267.886 402.868 276.952 402.868C286.126 402.868 293.966 405.214 300.472 409.908C307.086 414.601 312.152 421.268 315.672 429.908C319.192 438.548 320.952 448.841 320.952 460.788C320.952 472.734 319.192 483.028 315.672 491.668C312.152 500.308 307.086 506.974 300.472 511.668C293.966 516.361 286.126 518.708 276.952 518.708ZM276.952 502.708C284.952 502.708 291.406 499.134 296.312 491.988C301.219 484.734 303.672 474.334 303.672 460.788C303.672 447.241 301.219 436.894 296.312 429.748C291.406 422.494 284.952 418.868 276.952 418.868C268.846 418.868 262.339 422.494 257.432 429.748C252.632 436.894 250.232 447.241 250.232 460.788C250.232 474.334 252.632 484.734 257.432 491.988C262.339 499.134 268.846 502.708 276.952 502.708ZM329.37 516.788L362.81 404.788H382.97L416.41 516.788H398.01L390.49 489.908H355.29L347.77 516.788H329.37ZM372.41 428.788L359.13 476.308H386.65L373.37 428.788H372.41ZM432.827 516.788V404.788H469.467C478.214 404.788 485.414 406.281 491.067 409.268C496.827 412.254 501.094 416.308 503.867 421.428C506.747 426.441 508.187 432.148 508.187 438.548C508.187 445.801 506.321 452.254 502.587 457.908C498.961 463.454 493.361 467.508 485.787 470.068L509.307 516.788H489.627L468.187 472.468H449.787V516.788H432.827ZM449.787 457.108H468.507C476.187 457.108 481.787 455.401 485.307 451.988C488.934 448.574 490.747 444.094 490.747 438.548C490.747 432.894 488.987 428.414 485.467 425.108C481.947 421.694 476.241 419.988 468.347 419.988H449.787V457.108ZM525.885 516.788V404.788H552.765C570.792 404.788 584.178 409.801 592.925 419.828C601.672 429.748 606.045 443.401 606.045 460.788C606.045 478.174 601.672 491.881 592.925 501.908C584.178 511.828 570.792 516.788 552.765 516.788H525.885ZM542.845 501.108H552.125C565.138 501.108 574.525 497.481 580.285 490.228C586.045 482.868 588.925 473.054 588.925 460.788C588.925 448.521 586.045 438.761 580.285 431.508C574.525 424.148 565.138 420.468 552.125 420.468H542.845V501.108Z"/>
</mask>
<path d="M141.975 516.788V404.788H181.975C193.602 404.788 202.402 407.454 208.375 412.788C214.348 418.121 217.335 425.001 217.335 433.428C217.335 439.934 215.628 445.214 212.215 449.268C208.802 453.321 204.855 456.254 200.375 458.068V459.188C205.708 461.108 210.295 464.254 214.135 468.628C217.975 472.894 219.895 478.548 219.895 485.588C219.895 491.348 218.455 496.628 215.575 501.428C212.802 506.121 208.695 509.854 203.255 512.628C197.815 515.401 191.148 516.788 183.255 516.788H141.975ZM158.935 451.508H179.895C186.402 451.508 191.362 450.228 194.775 447.668C198.188 445.001 199.895 441.001 199.895 435.668C199.895 425.108 193.122 419.828 179.575 419.828H158.935V451.508ZM158.935 501.108H181.015C187.948 501.108 193.282 499.614 197.015 496.628C200.748 493.641 202.615 489.268 202.615 483.508C202.615 477.854 200.642 473.534 196.695 470.548C192.748 467.454 187.415 465.908 180.695 465.908H158.935V501.108ZM276.952 518.708C267.886 518.708 260.046 516.361 253.432 511.668C246.819 506.974 241.752 500.308 238.232 491.668C234.712 483.028 232.952 472.734 232.952 460.788C232.952 448.841 234.712 438.548 238.232 429.908C241.752 421.268 246.819 414.601 253.432 409.908C260.046 405.214 267.886 402.868 276.952 402.868C286.126 402.868 293.966 405.214 300.472 409.908C307.086 414.601 312.152 421.268 315.672 429.908C319.192 438.548 320.952 448.841 320.952 460.788C320.952 472.734 319.192 483.028 315.672 491.668C312.152 500.308 307.086 506.974 300.472 511.668C293.966 516.361 286.126 518.708 276.952 518.708ZM276.952 502.708C284.952 502.708 291.406 499.134 296.312 491.988C301.219 484.734 303.672 474.334 303.672 460.788C303.672 447.241 301.219 436.894 296.312 429.748C291.406 422.494 284.952 418.868 276.952 418.868C268.846 418.868 262.339 422.494 257.432 429.748C252.632 436.894 250.232 447.241 250.232 460.788C250.232 474.334 252.632 484.734 257.432 491.988C262.339 499.134 268.846 502.708 276.952 502.708ZM329.37 516.788L362.81 404.788H382.97L416.41 516.788H398.01L390.49 489.908H355.29L347.77 516.788H329.37ZM372.41 428.788L359.13 476.308H386.65L373.37 428.788H372.41ZM432.827 516.788V404.788H469.467C478.214 404.788 485.414 406.281 491.067 409.268C496.827 412.254 501.094 416.308 503.867 421.428C506.747 426.441 508.187 432.148 508.187 438.548C508.187 445.801 506.321 452.254 502.587 457.908C498.961 463.454 493.361 467.508 485.787 470.068L509.307 516.788H489.627L468.187 472.468H449.787V516.788H432.827ZM449.787 457.108H468.507C476.187 457.108 481.787 455.401 485.307 451.988C488.934 448.574 490.747 444.094 490.747 438.548C490.747 432.894 488.987 428.414 485.467 425.108C481.947 421.694 476.241 419.988 468.347 419.988H449.787V457.108ZM525.885 516.788V404.788H552.765C570.792 404.788 584.178 409.801 592.925 419.828C601.672 429.748 606.045 443.401 606.045 460.788C606.045 478.174 601.672 491.881 592.925 501.908C584.178 511.828 570.792 516.788 552.765 516.788H525.885ZM542.845 501.108H552.125C565.138 501.108 574.525 497.481 580.285 490.228C586.045 482.868 588.925 473.054 588.925 460.788C588.925 448.521 586.045 438.761 580.285 431.508C574.525 424.148 565.138 420.468 552.125 420.468H542.845V501.108Z" fill="white"/>
<path d="M141.975 516.788H131.975V526.788H141.975V516.788ZM141.975 404.788V394.788H131.975V404.788H141.975ZM208.375 412.788L201.715 420.247L208.375 412.788ZM212.215 449.268L219.864 455.709L219.864 455.709L212.215 449.268ZM200.375 458.068L196.623 448.798L190.375 451.327V458.068H200.375ZM200.375 459.188H190.375V466.216L196.988 468.597L200.375 459.188ZM214.135 468.628L206.62 475.226L206.661 475.272L206.702 475.317L214.135 468.628ZM215.575 501.428L207 496.283L206.983 496.312L206.966 496.34L215.575 501.428ZM203.255 512.628L198.713 503.719L203.255 512.628ZM158.935 451.508H148.935V461.508H158.935V451.508ZM194.775 447.668L200.775 455.668L200.854 455.609L200.931 455.548L194.775 447.668ZM158.935 419.828V409.828H148.935V419.828H158.935ZM158.935 501.108H148.935V511.108H158.935V501.108ZM197.015 496.628L190.768 488.819L190.768 488.819L197.015 496.628ZM196.695 470.548L190.526 478.418L190.593 478.471L190.66 478.522L196.695 470.548ZM158.935 465.908V455.908H148.935V465.908H158.935ZM141.975 516.788H151.975V404.788H141.975H131.975V516.788H141.975ZM141.975 404.788V414.788H181.975V404.788V394.788H141.975V404.788ZM181.975 404.788V414.788C192.238 414.788 198.252 417.155 201.715 420.247L208.375 412.788L215.035 405.328C206.551 397.754 194.965 394.788 181.975 394.788V404.788ZM208.375 412.788L201.715 420.247C205.44 423.574 207.335 427.681 207.335 433.428H217.335H227.335C227.335 422.321 223.256 412.669 215.035 405.328L208.375 412.788ZM217.335 433.428H207.335C207.335 438.134 206.137 440.96 204.566 442.826L212.215 449.268L219.864 455.709C225.119 449.468 227.335 441.735 227.335 433.428H217.335ZM212.215 449.268L204.566 442.826C202.098 445.756 199.451 447.654 196.623 448.798L200.375 458.068L204.127 467.337C210.259 464.855 215.505 460.886 219.864 455.709L212.215 449.268ZM200.375 458.068H190.375V459.188H200.375H210.375V458.068H200.375ZM200.375 459.188L196.988 468.597C200.686 469.928 203.865 472.088 206.62 475.226L214.135 468.628L221.649 462.03C216.724 456.421 210.73 452.287 203.762 449.779L200.375 459.188ZM214.135 468.628L206.702 475.317C208.536 477.355 209.895 480.433 209.895 485.588H219.895H229.895C229.895 476.663 227.414 468.434 221.568 461.938L214.135 468.628ZM219.895 485.588H209.895C209.895 489.59 208.92 493.084 207 496.283L215.575 501.428L224.15 506.573C227.99 500.172 229.895 493.105 229.895 485.588H219.895ZM215.575 501.428L206.966 496.34C205.271 499.208 202.671 501.701 198.713 503.719L203.255 512.628L207.797 521.537C214.718 518.008 220.332 513.034 224.184 506.515L215.575 501.428ZM203.255 512.628L198.713 503.719C195.03 505.596 190.016 506.788 183.255 506.788V516.788V526.788C192.28 526.788 200.6 525.206 207.797 521.537L203.255 512.628ZM183.255 516.788V506.788H141.975V516.788V526.788H183.255V516.788ZM158.935 451.508V461.508H179.895V451.508V441.508H158.935V451.508ZM179.895 451.508V461.508C187.493 461.508 194.934 460.048 200.775 455.668L194.775 447.668L188.775 439.668C187.789 440.407 185.311 441.508 179.895 441.508V451.508ZM194.775 447.668L200.931 455.548C207.33 450.549 209.895 443.292 209.895 435.668H199.895H189.895C189.895 438.711 189.046 439.453 188.618 439.787L194.775 447.668ZM199.895 435.668H209.895C209.895 428.089 207.338 420.87 200.963 415.901C195.061 411.3 187.372 409.828 179.575 409.828V419.828V429.828C185.324 429.828 187.795 430.995 188.667 431.675C189.065 431.985 189.895 432.686 189.895 435.668H199.895ZM179.575 419.828V409.828H158.935V419.828V429.828H179.575V419.828ZM158.935 419.828H148.935V451.508H158.935H168.935V419.828H158.935ZM158.935 501.108V511.108H181.015V501.108V491.108H158.935V501.108ZM181.015 501.108V511.108C189.227 511.108 197.111 509.357 203.262 504.436L197.015 496.628L190.768 488.819C189.452 489.872 186.67 491.108 181.015 491.108V501.108ZM197.015 496.628L203.262 504.436C209.859 499.159 212.615 491.615 212.615 483.508H202.615H192.615C192.615 486.92 191.638 488.123 190.768 488.819L197.015 496.628ZM202.615 483.508H212.615C212.615 475.23 209.553 467.737 202.729 462.574L196.695 470.548L190.66 478.522C191.73 479.332 192.615 480.479 192.615 483.508H202.615ZM196.695 470.548L202.864 462.677C196.641 457.8 188.893 455.908 180.695 455.908V465.908V475.908C185.936 475.908 188.856 477.109 190.526 478.418L196.695 470.548ZM180.695 465.908V455.908H158.935V465.908V475.908H180.695V465.908ZM158.935 465.908H148.935V501.108H158.935H168.935V465.908H158.935ZM253.432 511.668L259.22 503.513L259.22 503.513L253.432 511.668ZM238.232 491.668L228.971 495.441L238.232 491.668ZM238.232 429.908L228.971 426.135L228.971 426.135L238.232 429.908ZM253.432 409.908L247.645 401.753L247.645 401.753L253.432 409.908ZM300.472 409.908L294.622 418.018L294.654 418.041L294.685 418.063L300.472 409.908ZM315.672 429.908L324.933 426.135L324.933 426.135L315.672 429.908ZM315.672 491.668L324.933 495.441L324.933 495.441L315.672 491.668ZM300.472 511.668L294.685 503.513L294.654 503.535L294.622 503.557L300.472 511.668ZM296.312 491.988L304.556 497.648L304.576 497.619L304.595 497.591L296.312 491.988ZM296.312 429.748L288.03 435.351L288.049 435.379L288.068 435.408L296.312 429.748ZM257.432 429.748L249.15 424.145L249.14 424.158L249.131 424.172L257.432 429.748ZM257.432 491.988L249.093 497.506L249.14 497.577L249.188 497.648L257.432 491.988ZM276.952 518.708V508.708C269.704 508.708 263.945 506.866 259.22 503.513L253.432 511.668L247.645 519.823C256.147 525.856 266.067 528.708 276.952 528.708V518.708ZM253.432 511.668L259.22 503.513C254.38 500.078 250.406 495.045 247.493 487.895L238.232 491.668L228.971 495.441C233.099 505.571 239.258 513.871 247.645 519.823L253.432 511.668ZM238.232 491.668L247.493 487.895C244.577 480.737 242.952 471.788 242.952 460.788H232.952H222.952C222.952 473.681 224.847 485.318 228.971 495.441L238.232 491.668ZM232.952 460.788H242.952C242.952 449.787 244.577 440.838 247.493 433.681L238.232 429.908L228.971 426.135C224.847 436.257 222.952 447.895 222.952 460.788H232.952ZM238.232 429.908L247.493 433.681C250.406 426.531 254.38 421.497 259.22 418.063L253.432 409.908L247.645 401.753C239.258 407.705 233.099 416.005 228.971 426.135L238.232 429.908ZM253.432 409.908L259.22 418.063C263.945 414.71 269.704 412.868 276.952 412.868V402.868V392.868C266.067 392.868 256.147 395.719 247.645 401.753L253.432 409.908ZM276.952 402.868V412.868C284.339 412.868 290.056 414.724 294.622 418.018L300.472 409.908L306.322 401.797C297.875 395.704 287.913 392.868 276.952 392.868V402.868ZM300.472 409.908L294.685 418.063C299.525 421.497 303.499 426.531 306.411 433.681L315.672 429.908L324.933 426.135C320.806 416.005 314.647 407.705 306.26 401.753L300.472 409.908ZM315.672 429.908L306.411 433.681C309.328 440.838 310.952 449.787 310.952 460.788H320.952H330.952C330.952 447.895 329.057 436.257 324.933 426.135L315.672 429.908ZM320.952 460.788H310.952C310.952 471.788 309.328 480.737 306.411 487.895L315.672 491.668L324.933 495.441C329.057 485.318 330.952 473.681 330.952 460.788H320.952ZM315.672 491.668L306.411 487.895C303.499 495.045 299.525 500.078 294.685 503.513L300.472 511.668L306.26 519.823C314.647 513.871 320.806 505.571 324.933 495.441L315.672 491.668ZM300.472 511.668L294.622 503.557C290.056 506.851 284.339 508.708 276.952 508.708V518.708V528.708C287.913 528.708 297.875 525.871 306.322 519.778L300.472 511.668ZM276.952 502.708V512.708C288.559 512.708 297.968 507.243 304.556 497.648L296.312 491.988L288.068 486.328C284.843 491.025 281.345 492.708 276.952 492.708V502.708ZM296.312 491.988L304.595 497.591C311.079 488.006 313.672 475.318 313.672 460.788H303.672H293.672C293.672 473.351 291.359 481.463 288.03 486.385L296.312 491.988ZM303.672 460.788H313.672C313.672 446.273 311.085 433.597 304.556 424.088L296.312 429.748L288.068 435.408C291.353 440.192 293.672 448.209 293.672 460.788H303.672ZM296.312 429.748L304.595 424.145C298.036 414.448 288.626 408.868 276.952 408.868V418.868V428.868C281.279 428.868 284.776 430.54 288.03 435.351L296.312 429.748ZM276.952 418.868V408.868C265.223 408.868 255.74 414.403 249.15 424.145L257.432 429.748L265.715 435.351C268.938 430.586 272.468 428.868 276.952 428.868V418.868ZM257.432 429.748L249.131 424.172C242.756 433.664 240.232 446.304 240.232 460.788H250.232H260.232C260.232 448.178 262.509 440.125 265.734 435.323L257.432 429.748ZM250.232 460.788H240.232C240.232 475.286 242.762 487.939 249.093 497.506L257.432 491.988L265.772 486.469C262.503 481.53 260.232 473.382 260.232 460.788H250.232ZM257.432 491.988L249.188 497.648C255.807 507.288 265.289 512.708 276.952 512.708V502.708V492.708C272.402 492.708 268.871 490.981 265.676 486.328L257.432 491.988ZM329.37 516.788L319.788 513.927L315.948 526.788H329.37V516.788ZM362.81 404.788V394.788H355.359L353.228 401.927L362.81 404.788ZM382.97 404.788L392.552 401.927L390.42 394.788H382.97V404.788ZM416.41 516.788V526.788H429.832L425.992 513.927L416.41 516.788ZM398.01 516.788L388.38 519.482L390.424 526.788H398.01V516.788ZM390.49 489.908L400.12 487.214L398.076 479.908H390.49V489.908ZM355.29 489.908V479.908H347.704L345.66 487.214L355.29 489.908ZM347.77 516.788V526.788H355.356L357.4 519.482L347.77 516.788ZM372.41 428.788V418.788H364.821L362.779 426.096L372.41 428.788ZM359.13 476.308L349.499 473.616L345.952 486.308H359.13V476.308ZM386.65 476.308V486.308H399.828L396.281 473.616L386.65 476.308ZM373.37 428.788L383.001 426.096L380.958 418.788H373.37V428.788ZM329.37 516.788L338.952 519.649L372.392 407.649L362.81 404.788L353.228 401.927L319.788 513.927L329.37 516.788ZM362.81 404.788V414.788H382.97V404.788V394.788H362.81V404.788ZM382.97 404.788L373.388 407.649L406.828 519.649L416.41 516.788L425.992 513.927L392.552 401.927L382.97 404.788ZM416.41 516.788V506.788H398.01V516.788V526.788H416.41V516.788ZM398.01 516.788L407.64 514.094L400.12 487.214L390.49 489.908L380.86 492.602L388.38 519.482L398.01 516.788ZM390.49 489.908V479.908H355.29V489.908V499.908H390.49V489.908ZM355.29 489.908L345.66 487.214L338.14 514.094L347.77 516.788L357.4 519.482L364.92 492.602L355.29 489.908ZM347.77 516.788V506.788H329.37V516.788V526.788H347.77V516.788ZM372.41 428.788L362.779 426.096L349.499 473.616L359.13 476.308L368.761 478.999L382.041 431.479L372.41 428.788ZM359.13 476.308V486.308H386.65V476.308V466.308H359.13V476.308ZM386.65 476.308L396.281 473.616L383.001 426.096L373.37 428.788L363.739 431.479L377.019 478.999L386.65 476.308ZM373.37 428.788V418.788H372.41V428.788V438.788H373.37V428.788ZM432.827 516.788H422.827V526.788H432.827V516.788ZM432.827 404.788V394.788H422.827V404.788H432.827ZM491.067 409.268L486.396 418.11L486.43 418.128L486.464 418.145L491.067 409.268ZM503.867 421.428L495.074 426.191L495.134 426.301L495.196 426.409L503.867 421.428ZM502.587 457.908L494.243 452.397L494.23 452.416L494.218 452.435L502.587 457.908ZM485.787 470.068L482.585 460.594L471.679 464.281L476.855 474.564L485.787 470.068ZM509.307 516.788V526.788H525.537L518.239 512.291L509.307 516.788ZM489.627 516.788L480.625 521.142L483.356 526.788H489.627V516.788ZM468.187 472.468L477.189 468.113L474.458 462.468H468.187V472.468ZM449.787 472.468V462.468H439.787V472.468H449.787ZM449.787 516.788V526.788H459.787V516.788H449.787ZM449.787 457.108H439.787V467.108H449.787V457.108ZM485.307 451.988L478.454 444.706L478.399 444.757L478.346 444.809L485.307 451.988ZM485.467 425.108L478.506 432.287L478.563 432.342L478.621 432.396L485.467 425.108ZM449.787 419.988V409.988H439.787V419.988H449.787ZM432.827 516.788H442.827V404.788H432.827H422.827V516.788H432.827ZM432.827 404.788V414.788H469.467V404.788V394.788H432.827V404.788ZM469.467 404.788V414.788C477.156 414.788 482.614 416.111 486.396 418.11L491.067 409.268L495.739 400.426C488.214 396.451 479.272 394.788 469.467 394.788V404.788ZM491.067 409.268L486.464 418.145C490.658 420.32 493.362 423.029 495.074 426.191L503.867 421.428L512.66 416.665C508.826 409.587 502.996 404.189 495.671 400.39L491.067 409.268ZM503.867 421.428L495.196 426.409C497.115 429.749 498.187 433.704 498.187 438.548H508.187H518.187C518.187 430.591 516.38 423.133 512.538 416.446L503.867 421.428ZM508.187 438.548H498.187C498.187 443.987 496.819 448.496 494.243 452.397L502.587 457.908L510.932 463.418C515.822 456.013 518.187 447.615 518.187 438.548H508.187ZM502.587 457.908L494.218 452.435C492.055 455.743 488.489 458.599 482.585 460.594L485.787 470.068L488.99 479.541C498.233 476.417 505.867 471.165 510.957 463.38L502.587 457.908ZM485.787 470.068L476.855 474.564L500.375 521.284L509.307 516.788L518.239 512.291L494.719 465.571L485.787 470.068ZM509.307 516.788V506.788H489.627V516.788V526.788H509.307V516.788ZM489.627 516.788L498.629 512.433L477.189 468.113L468.187 472.468L459.185 476.822L480.625 521.142L489.627 516.788ZM468.187 472.468V462.468H449.787V472.468V482.468H468.187V472.468ZM449.787 472.468H439.787V516.788H449.787H459.787V472.468H449.787ZM449.787 516.788V506.788H432.827V516.788V526.788H449.787V516.788ZM449.787 457.108V467.108H468.507V457.108V447.108H449.787V457.108ZM468.507 457.108V467.108C477.364 467.108 486.064 465.183 492.269 459.167L485.307 451.988L478.346 444.809C477.51 445.619 475.011 447.108 468.507 447.108V457.108ZM485.307 451.988L492.161 459.27C498.035 453.742 500.747 446.505 500.747 438.548H490.747H480.747C480.747 441.684 479.833 443.407 478.454 444.706L485.307 451.988ZM490.747 438.548H500.747C500.747 430.647 498.192 423.341 492.314 417.819L485.467 425.108L478.621 432.396C479.783 433.488 480.747 435.142 480.747 438.548H490.747ZM485.467 425.108L492.429 417.929C486.183 411.872 477.325 409.988 468.347 409.988V419.988V429.988C475.156 429.988 477.712 431.517 478.506 432.287L485.467 425.108ZM468.347 419.988V409.988H449.787V419.988V429.988H468.347V419.988ZM449.787 419.988H439.787V457.108H449.787H459.787V419.988H449.787ZM525.885 516.788H515.885V526.788H525.885V516.788ZM525.885 404.788V394.788H515.885V404.788H525.885ZM592.925 419.828L585.389 426.401L585.407 426.421L585.424 426.441L592.925 419.828ZM592.925 501.908L600.426 508.521L600.443 508.501L600.461 508.481L592.925 501.908ZM542.845 501.108H532.845V511.108H542.845V501.108ZM580.285 490.228L588.116 496.447L588.138 496.419L588.16 496.391L580.285 490.228ZM580.285 431.508L572.41 437.671L572.432 437.699L572.454 437.727L580.285 431.508ZM542.845 420.468V410.468H532.845V420.468H542.845ZM525.885 516.788H535.885V404.788H525.885H515.885V516.788H525.885ZM525.885 404.788V414.788H552.765V404.788V394.788H525.885V404.788ZM552.765 404.788V414.788C568.979 414.788 579.15 419.249 585.389 426.401L592.925 419.828L600.461 413.254C589.206 400.353 572.604 394.788 552.765 394.788V404.788ZM592.925 419.828L585.424 426.441C592.109 434.023 596.045 445.055 596.045 460.788H606.045H616.045C616.045 441.747 611.234 425.472 600.426 413.214L592.925 419.828ZM606.045 460.788H596.045C596.045 476.513 592.112 487.627 585.389 495.334L592.925 501.908L600.461 508.481C611.231 496.135 616.045 479.835 616.045 460.788H606.045ZM592.925 501.908L585.424 495.294C579.194 502.36 569.011 506.788 552.765 506.788V516.788V526.788C572.572 526.788 589.163 521.295 600.426 508.521L592.925 501.908ZM552.765 516.788V506.788H525.885V516.788V526.788H552.765V516.788ZM542.845 501.108V511.108H552.125V501.108V491.108H542.845V501.108ZM552.125 501.108V511.108C566.888 511.108 579.776 506.949 588.116 496.447L580.285 490.228L572.454 484.009C569.274 488.013 563.389 491.108 552.125 491.108V501.108ZM580.285 490.228L588.16 496.391C595.674 486.789 598.925 474.588 598.925 460.788H588.925H578.925C578.925 471.521 576.416 478.946 572.41 484.065L580.285 490.228ZM588.925 460.788H598.925C598.925 446.997 595.678 434.811 588.116 425.289L580.285 431.508L572.454 437.727C576.412 442.711 578.925 450.045 578.925 460.788H588.925ZM580.285 431.508L588.16 425.345C579.836 414.709 566.935 410.468 552.125 410.468V420.468V430.468C563.341 430.468 569.214 433.587 572.41 437.671L580.285 431.508ZM552.125 420.468V410.468H542.845V420.468V430.468H552.125V420.468ZM542.845 420.468H532.845V501.108H542.845H552.845V420.468H542.845Z" fill="#184366" mask="url(#path-5-outside-2_2_40)"/>
</svg>
